<?xml version="1.0" standalone="no"?>
<!DOCTYPE svg PUBLIC "-//W3C//DTD SVG 1.1//EN" "http://www.w3.org/Graphics/SVG/1.1/DTD/svg11.dtd" >
<svg xmlns="http://www.w3.org/2000/svg">
<metadata></metadata>
<defs>
<font id="dinprobold" horiz-adv-x="1112" >
<font-face units-per-em="2048" ascent="1565" descent="-483" />
<missing-glyph horiz-adv-x="475" />
<glyph unicode="&#xfb01;" horiz-adv-x="1232" d="M63 834v202h111v133q0 59 18.5 112.5t55 97.5t98 70t139.5 26h152v-226h-102q-95 0 -95 -96v-117h197v-202h-197v-834h-266v834h-111zM815 1249v217h275v-217h-275zM819 0v1036h266v-1036h-266z" />
<glyph unicode="&#xfb02;" horiz-adv-x="1327" d="M63 834v202h111v133q0 59 18.5 112.5t55 97.5t98 70t139.5 26h152v-226h-102q-95 0 -95 -96v-117h197v-202h-197v-834h-266v834h-111zM815 305v1153h266v-1136q0 -97 95 -97h102v-225h-152q-79 0 -140.5 26t-97.5 70t-54.5 97t-18.5 112z" />
<glyph horiz-adv-x="0" />
<glyph horiz-adv-x="0" />
<glyph horiz-adv-x="682" />
<glyph unicode="&#xd;" horiz-adv-x="475" />
<glyph unicode=" "  horiz-adv-x="475" />
<glyph unicode="&#x09;" horiz-adv-x="475" />
<glyph unicode="&#xa0;" horiz-adv-x="475" />
<glyph unicode="!" horiz-adv-x="710" d="M229 1458h330l-67 -1001h-197zM242 0v303h305v-303h-305z" />
<glyph unicode="&#x22;" horiz-adv-x="950" d="M139 1026v432h250v-432h-250zM561 1026v432h248v-432h-248z" />
<glyph unicode="#" horiz-adv-x="1415" d="M123 389v250h182l33 221h-143v248h182l57 362h281l-58 -362h238l57 362h279l-55 -362h141v-248h-182l-33 -221h141v-250h-182l-62 -389h-280l63 389h-237l-62 -389h-280l61 389h-141zM584 639h237l33 221h-236z" />
<glyph unicode="$" horiz-adv-x="1267" d="M39 180l184 185q116 -116 326 -123v370l-66 9q-184 24 -282 122q-105 105 -105 285q0 179 114 297.5t312 140.5v185h207v-183q125 -8 223 -48.5t181 -119.5l-181 -178q-90 87 -252 99v-357l78 -12q186 -28 279 -115q112 -106 112 -307q0 -182 -121 -296t-319 -138v-229 h-207v221q-153 5 -269.5 49.5t-213.5 142.5zM371 1038q0 -64 43 -104q48 -45 135 -57v342q-86 -12 -132 -61.5t-46 -119.5zM700 246q92 11 141.5 56t49.5 120q0 81 -45 123q-19 18 -47 29.5t-44 14.5t-55 9v-352z" />
<glyph unicode="%" horiz-adv-x="1736" d="M106 987v203q0 133 84.5 206.5t212.5 73.5q127 0 212 -74t85 -206v-203q0 -132 -85 -206t-212 -74q-128 0 -212.5 73.5t-84.5 206.5zM299 995q0 -116 104 -116q50 0 77.5 29t27.5 87v187q0 58 -27.5 87t-77.5 29q-104 0 -104 -116v-187zM420 0l690 1458h209l-690 -1458 h-209zM1036 268v203q0 133 84.5 207t212.5 74q126 0 211.5 -74.5t85.5 -206.5v-203q0 -132 -85 -206t-212 -74q-128 0 -212.5 73.5t-84.5 206.5zM1229 276q0 -116 104 -116q50 0 77.5 29t27.5 87v187q0 58 -27.5 87.5t-77.5 29.5q-104 0 -104 -117v-187z" />
<glyph unicode="&#x26;" horiz-adv-x="1476" d="M123 430q0 67 22 127t62.5 108t82 84t95.5 72q-30 35 -49 59.5t-44.5 66t-38.5 88t-13 95.5q0 152 104.5 246t284.5 94q169 0 270.5 -96t101.5 -248q0 -80 -38 -140.5t-111 -113.5q-67 -50 -104 -75l245 -291q68 91 74 256h252q-16 -295 -156 -453l262 -309h-338 l-106 127q-80 -62 -130 -87q-108 -52 -247 -52q-237 0 -359 116t-122 326zM381 434q0 -90 63.5 -147.5t157.5 -57.5q118 0 217 86l-291 342q-49 -34 -78.5 -62.5t-49 -69.5t-19.5 -91zM508 1124q0 -25 15.5 -55t31 -49t49.5 -59l62 40q84 59 84 123q0 52 -32.5 85.5 t-88.5 33.5q-58 0 -89.5 -33t-31.5 -86z" />
<glyph unicode="'" horiz-adv-x="530" d="M139 1026v432h252v-432h-252z" />
<glyph unicode="(" horiz-adv-x="688" d="M164 283v893q0 172 53 264q22 37 56 78.5t54 62t70 70.5l178 -178q-31 -31 -45 -46t-33 -39.5t-36 -52.5q-31 -57 -31 -172v-868q0 -115 31 -172q17 -28 36.5 -52.5t32 -38t45.5 -46.5l-178 -179q-50 50 -70 70.5t-54 62t-56 78.5q-53 92 -53 265z" />
<glyph unicode=")" horiz-adv-x="688" d="M111 -12l17.5 17.5l16.5 16.5t14 14.5t14.5 15.5t12.5 15t13.5 17.5t12.5 17.5t13 21q31 57 31 172v868q0 115 -31 172q-7 12 -14 22.5t-16 22t-13.5 17t-17 19t-15 16l-19 19l-19.5 19.5l180 181q50 -50 70 -70.5t54 -62t56 -78.5q53 -92 53 -264v-893q0 -173 -53 -265 q-22 -37 -56 -78.5t-54 -62t-70 -70.5z" />
<glyph unicode="*" horiz-adv-x="1011" d="M113 942l225 119l-225 119l92 163l217 -137l-10 256h188l-8 -256l215 137l94 -163l-227 -119l227 -119l-94 -162l-215 135l8 -256h-188l10 256l-217 -135z" />
<glyph unicode="+" d="M102 442v250h330v328h250v-328h328v-250h-328v-327h-250v327h-330z" />
<glyph unicode="," horiz-adv-x="571" d="M139 291h293v-404l-293 -225v629z" />
<glyph unicode="-" horiz-adv-x="872" d="M121 461v248h631v-248h-631z" />
<glyph unicode="." horiz-adv-x="583" d="M139 0v303h305v-303h-305z" />
<glyph unicode="/" horiz-adv-x="825" d="M0 -152l584 1762h250l-584 -1762h-250z" />
<glyph unicode="0" d="M113 422v614q0 102 36 185t97 137t141 83t170 29t169.5 -29t140.5 -83t96.5 -137t35.5 -185v-614q0 -102 -35.5 -185t-96.5 -137t-140.5 -83t-169.5 -29t-170 29t-141 83t-97 137t-36 185zM379 424q0 -91 49.5 -144t128.5 -53t127.5 53t48.5 144v608q0 91 -48.5 145 t-127.5 54t-128.5 -54t-49.5 -145v-608z" />
<glyph unicode="1" d="M211 913v287l297 258h266v-1458h-266v1171z" />
<glyph unicode="2" d="M121 0v240l545 632q41 48 58 87.5t17 89.5q0 83 -46.5 132.5t-129.5 49.5q-75 0 -126.5 -44.5t-51.5 -142.5h-266q0 195 126 310.5t318 115.5q196 0 319.5 -114.5t123.5 -308.5q0 -98 -35 -166t-121 -168l-408 -473h564v-240h-887z" />
<glyph unicode="3" d="M86 418h266q3 -93 59.5 -142t139.5 -49q88 0 142.5 53.5t54.5 149.5q0 92 -54 146.5t-151 54.5h-39v231h39q92 0 138 50.5t46 131.5q0 88 -51 137.5t-127 49.5t-126 -47t-54 -129h-267q3 127 63.5 222t160 144t223.5 49q194 0 319 -116.5t125 -300.5q0 -210 -168 -299 q189 -100 189 -332q0 -106 -37 -190t-101 -136.5t-147 -80t-178 -27.5q-73 0 -139.5 15t-126 48.5t-103 83t-69.5 122t-27 161.5z" />
<glyph unicode="4" d="M63 207v252l500 999h291l-500 -999h305v272h256v-272h134v-252h-134v-207h-256v207h-596z" />
<glyph unicode="5" d="M117 408h266q22 -181 178 -181q80 0 127 47q57 57 57 218q0 130 -42 196t-136 66q-75 0 -117.5 -34.5t-58.5 -84.5h-244v823h832v-239h-590v-314q32 31 91 52.5t128 21.5q175 0 273 -98q79 -79 105 -172.5t26 -216.5q0 -133 -27 -222t-102 -164q-118 -118 -322 -118 q-107 0 -190.5 32.5t-134.5 83.5q-62 62 -87 136t-32 168z" />
<glyph unicode="6" d="M98 438q0 90 31 177.5t92 211.5l307 631h291l-303 -602q45 18 109 18q155 0 269 -119t114 -313q0 -210 -128 -332t-327 -122q-200 0 -327.5 119.5t-127.5 330.5zM365 440q0 -99 52 -156t136 -57t136 57t52 156q0 97 -51.5 155t-136.5 58q-84 0 -136 -57t-52 -156z" />
<glyph unicode="7" d="M102 989v469h928v-239l-473 -1219h-289l473 1219h-385v-230h-254z" />
<glyph unicode="8" d="M90 424q0 207 182 328q-68 47 -115.5 122t-47.5 181q0 188 129.5 301.5t318.5 113.5t318 -113.5t129 -301.5q0 -190 -164 -303q184 -122 184 -328q0 -137 -63.5 -237.5t-168 -149.5t-235.5 -49t-235.5 49t-168 149.5t-63.5 237.5zM356 428q0 -85 58 -143t143 -58t143 58 t58 143t-58 144t-143 59t-143 -59t-58 -144zM375 1047q0 -79 52 -132t130 -53t129 52.5t51 132.5q0 78 -51 131t-129 53t-130 -53t-52 -131z" />
<glyph unicode="9" d="M104 1016q0 210 128 332t327 122q200 0 327.5 -119.5t127.5 -330.5q0 -90 -30.5 -179t-90.5 -210l-309 -631h-289l303 602q-45 -18 -109 -18q-74 0 -143 30t-123 84t-86.5 137t-32.5 181zM371 1018q0 -97 51.5 -155t136.5 -58q84 0 136.5 57t52.5 156t-52.5 156 t-136.5 57t-136 -57t-52 -156z" />
<glyph unicode=":" horiz-adv-x="632" d="M190 0v303h304v-303h-304zM190 555v303h304v-303h-304z" />
<glyph unicode=";" horiz-adv-x="632" d="M190 555v303h304v-303h-304zM197 291h290v-404l-290 -225v629z" />
<glyph unicode="&#x3c;" d="M141 469v231l832 383v-280l-494 -219l494 -217v-281z" />
<glyph unicode="=" d="M102 238v249h908v-249h-908zM102 682v250h908v-250h-908z" />
<glyph unicode="&#x3e;" d="M141 86v281l494 217l-494 219v280l832 -383v-231z" />
<glyph unicode="?" horiz-adv-x="1071" d="M135 1061q0 124 58 218t155 142.5t217 48.5q117 0 214 -47t157.5 -141.5t60.5 -220.5q0 -123 -100 -256l-152 -201q-36 -49 -36 -104v-43h-267v61q0 63 18 110.5t60 102.5l152 195q59 77 59 137q0 73 -45.5 120.5t-120.5 47.5q-79 0 -121.5 -48t-42.5 -122h-266zM434 0 v272h283v-272h-283z" />
<glyph unicode="@" horiz-adv-x="1552" d="M117 342v612q0 130 29.5 224.5t97.5 162.5t161.5 96.5t223.5 28.5h295q128 0 222 -28t163 -97q68 -68 96.5 -161.5t28.5 -225.5v-960l-248 6v94q-51 -56 -107.5 -81t-138.5 -25q-164 0 -258 102q-59 63 -77.5 147t-18.5 236q0 149 18 232.5t76 146.5q93 104 258 104 q152 0 242 -100v92q0 137 -72 209t-205 72h-254q-133 0 -205 -72q-42 -42 -56.5 -90t-14.5 -119v-592q0 -75 19 -116t71 -86l-184 -185q-91 80 -126.5 159.5t-35.5 213.5zM842 473q0 -130 37.5 -197t130.5 -67t131.5 67t38.5 197t-38 196t-132 66q-93 0 -130.5 -66 t-37.5 -196z" />
<glyph unicode="A" horiz-adv-x="1306" d="M10 0l531 1458h223l532 -1458h-297l-86 258h-518l-88 -258h-297zM475 498h363l-179 530z" />
<glyph unicode="B" horiz-adv-x="1347" d="M170 0v1458h586q212 0 331 -110t119 -299q0 -110 -56 -189.5t-124 -111.5q37 -17 69 -42t63.5 -63.5t50 -96t18.5 -126.5q0 -199 -123.5 -309.5t-323.5 -110.5h-610zM455 254h297q92 0 141 51t49 129t-48.5 128t-141.5 50h-297v-358zM455 868h278q89 0 139 46t50 122 t-50 122t-139 46h-278v-336z" />
<glyph unicode="C" horiz-adv-x="1269" d="M121 729q0 240 24 363q24 124 119 219q159 159 393 159q214 0 357.5 -120t179.5 -340h-289q-24 98 -85.5 152.5t-160.5 54.5q-118 0 -182 -76q-44 -47 -57.5 -124t-13.5 -288t13.5 -288t57.5 -124q63 -75 182 -75q99 0 160.5 54.5t85.5 152.5h289q-36 -220 -180 -340.5 t-357 -120.5q-234 0 -393 159q-95 95 -119 220q-24 123 -24 362z" />
<glyph unicode="D" horiz-adv-x="1349" d="M170 0v1458h526q246 0 385 -139q24 -24 44 -51t34.5 -50.5t26 -56.5t18.5 -54.5t12.5 -59.5t8 -58t3.5 -63q2 -44 2 -61v-24.5v-40.5v-64v-66v-40.5v-25.5q0 -18 -1.5 -62.5t-4 -65t-8 -59.5t-12.5 -61.5t-18.5 -56t-26 -57.5t-34.5 -51.5t-44 -51.5q-139 -139 -385 -139 h-526zM455 254h215q138 0 213 90q38 47 49.5 130.5t11.5 260.5q0 175 -11.5 253.5t-49.5 125.5q-75 90 -213 90h-215v-950z" />
<glyph unicode="E" horiz-adv-x="1239" d="M170 0v1458h960v-254h-675v-342h575v-254h-575v-354h675v-254h-960z" />
<glyph unicode="F" horiz-adv-x="1208" d="M170 0v1458h960v-254h-675v-358h575v-254h-575v-592h-285z" />
<glyph unicode="G" horiz-adv-x="1304" d="M121 729q0 240 24 363q24 124 119 219q159 159 393 159q121 0 220 -36.5t165.5 -101.5t107.5 -147.5t56 -180.5h-286q-53 213 -263 213q-113 0 -182 -78q-42 -54 -55.5 -128t-13.5 -282q0 -147 6 -221.5t19.5 -114.5t43.5 -76q63 -75 182 -75q127 0 203 82q66 75 66 194 v55h-269v238h551v-213q0 -160 -32 -262.5t-107 -181.5q-163 -166 -412 -166q-234 0 -393 159q-95 95 -119 220q-24 123 -24 362z" />
<glyph unicode="H" horiz-adv-x="1402" d="M170 0v1458h285v-596h493v596h285v-1458h-285v610h-493v-610h-285z" />
<glyph unicode="I" horiz-adv-x="624" d="M170 0v1458h285v-1458h-285z" />
<glyph unicode="J" horiz-adv-x="1046" d="M6 137l189 187q41 -41 81.5 -61.5t104.5 -20.5q107 0 168 63.5t61 186.5v966h285v-979q0 -117 -42 -212t-114 -155t-163.5 -92t-194.5 -32q-120 0 -207 34t-168 115z" />
<glyph unicode="K" horiz-adv-x="1361" d="M170 0v1458h285v-635l514 635h346l-484 -579l519 -879h-332l-375 664l-188 -226v-438h-285z" />
<glyph unicode="L" horiz-adv-x="1177" d="M170 0v1458h285v-1204h661v-254h-946z" />
<glyph unicode="M" horiz-adv-x="1660" d="M170 0v1458h281l380 -788l379 788h281v-1458h-285v850l-278 -553h-193l-280 553v-850h-285z" />
<glyph unicode="N" horiz-adv-x="1456" d="M170 0v1458h254l577 -893v893h285v-1458h-254l-577 895v-895h-285z" />
<glyph unicode="O" horiz-adv-x="1318" d="M121 709v20q0 221 12 304q26 172 131 278q159 159 395 159q235 0 394 -159q36 -36 61.5 -74.5t41.5 -88t25 -86.5t12 -105t4 -105t1 -123t-0.5 -123t-4 -105t-12.5 -105t-25 -86.5t-41.5 -88t-61.5 -74.5q-159 -159 -394 -159q-236 0 -395 159q-35 35 -60 72.5t-40.5 85 t-24.5 84.5t-13 100.5t-4.5 102t-0.5 117.5zM406 729q0 -208 13.5 -285.5t55.5 -124.5q67 -77 184 -77q116 0 183 77q42 47 56.5 125.5t14.5 284.5t-14.5 284.5t-56.5 125.5q-68 78 -183 78q-116 0 -184 -78q-42 -47 -55.5 -124.5t-13.5 -285.5z" />
<glyph unicode="P" horiz-adv-x="1286" d="M170 0v1458h565q219 0 350.5 -131t131.5 -323q0 -93 -33.5 -175.5t-94 -145t-152.5 -98.5t-202 -36h-280v-549h-285zM455 805h266q96 0 153.5 54.5t57.5 144.5t-57.5 145t-153.5 55h-266v-399z" />
<glyph unicode="Q" horiz-adv-x="1316" d="M121 709v20q0 221 12 304q26 172 131 278q159 159 395 159q235 0 394 -159q36 -36 61.5 -74.5t41.5 -88t25 -86.5t12.5 -105t4 -105t0.5 -123q0 -111 -1.5 -159.5t-9 -125t-27 -129.5t-52.5 -102l125 -125l-150 -149l-129 129q-124 -80 -295 -80q-236 0 -395 159 q-35 35 -60 72.5t-40.5 85t-24.5 84.5t-13 100.5t-4.5 102t-0.5 117.5zM406 729q0 -208 13.5 -285.5t55.5 -124.5q67 -77 184 -77q56 0 95 26l-127 125l151 150l109 -109q16 44 21 108.5t5 186.5q0 206 -14.5 284.5t-56.5 125.5q-68 78 -183 78q-116 0 -184 -78 q-42 -47 -55.5 -124.5t-13.5 -285.5z" />
<glyph unicode="R" horiz-adv-x="1339" d="M170 0v1458h571q144 0 253 -61t164.5 -161.5t55.5 -223.5q0 -145 -75.5 -243t-190.5 -140l326 -629h-330l-285 582h-204v-582h-285zM455 819h268q93 0 150 54t57 139t-57 138.5t-150 53.5h-268v-385z" />
<glyph unicode="S" horiz-adv-x="1210" d="M39 180l184 185q123 -123 352 -123q126 0 192.5 46t66.5 134q0 80 -46 123q-41 38 -129 51l-176 25q-184 27 -282 120q-105 105 -105 287q0 198 137.5 320t370.5 122q153 0 265.5 -40t205.5 -130l-180 -178q-62 60 -136.5 80.5t-162.5 20.5q-109 0 -167 -52.5t-58 -132.5 q0 -64 43 -104q49 -45 135 -57l172 -25q184 -25 278 -113q113 -107 113 -309q0 -206 -152.5 -324t-388.5 -118q-173 0 -301 43.5t-231 148.5z" />
<glyph unicode="T" horiz-adv-x="1169" d="M61 1204v254h1047v-254h-381v-1204h-285v1204h-381z" />
<glyph unicode="U" horiz-adv-x="1368" d="M147 500v958h285v-948q0 -125 68 -196.5t184 -71.5t185 71.5t69 196.5v948h283v-958q0 -151 -72 -269t-194 -180.5t-271 -62.5t-271 62.5t-194 180.5t-72 269z" />
<glyph unicode="V" horiz-adv-x="1189" d="M6 1458h295l293 -950l293 950h297l-484 -1458h-213z" />
<glyph unicode="W" horiz-adv-x="1816" d="M12 1458h297l226 -919l266 919h213l266 -919l227 919h297l-391 -1458h-237l-269 885l-268 -885h-238z" />
<glyph unicode="X" horiz-adv-x="1234" d="M10 0l453 748l-424 710h323l254 -471l256 471h322l-424 -710l455 -748h-326l-283 508l-280 -508h-326z" />
<glyph unicode="Y" horiz-adv-x="1171" d="M6 1458h309l273 -588l268 588h309l-438 -860v-598h-283v598z" />
<glyph unicode="Z" horiz-adv-x="1122" d="M82 0v229l623 975h-596v254h931v-225l-624 -979h624v-254h-958z" />
<glyph unicode="[" horiz-adv-x="774" d="M164 -152v1762h526v-240h-260v-1282h260v-240h-526z" />
<glyph unicode="\" horiz-adv-x="825" d="M0 1583h250l575 -1735h-250z" />
<glyph unicode="]" horiz-adv-x="774" d="M86 86h260v1286h-260v238h526v-1762h-526v238z" />
<glyph unicode="^" horiz-adv-x="1232" d="M129 797l365 676h245l365 -676h-279l-209 385l-208 -385h-279z" />
<glyph unicode="_" horiz-adv-x="1232" d="M0 -186h1233v-179h-1233v179z" />
<glyph unicode="`" horiz-adv-x="1024" d="M213 1585h281l131 -348h-179z" />
<glyph unicode="a" horiz-adv-x="1093" d="M74 324q0 135 93 222t271 87h252v53q0 88 -46.5 128t-151.5 40q-75 0 -118.5 -19.5t-86.5 -68.5l-170 166q76 84 162 115.5t223 31.5q225 0 339.5 -95t114.5 -282v-702h-260v92q-55 -55 -113.5 -78.5t-148.5 -23.5q-178 0 -272 94q-88 91 -88 240zM330 330 q0 -57 38.5 -90t114.5 -33q62 0 98.5 9.5t69.5 41.5q39 36 39 135v58h-211q-72 0 -110.5 -32t-38.5 -89z" />
<glyph unicode="b" horiz-adv-x="1146" d="M150 0v1458h266v-485q51 57 112.5 81.5t145.5 24.5q77 0 146 -25.5t114 -70.5q38 -38 61.5 -89t32.5 -118.5t11.5 -114.5t2.5 -126t-2 -126.5t-11.5 -115.5t-33 -119.5t-61.5 -89.5q-45 -45 -114 -70.5t-146 -25.5q-86 0 -148.5 26t-117.5 86v-100h-258zM416 535 q0 -58 3.5 -99.5t14 -83.5t30 -67.5t52.5 -41.5t80 -16t80 16t52.5 41.5t30 67.5t14 83.5t3.5 99.5t-3.5 99t-14 82.5t-30 67t-52.5 41t-80 15.5t-80 -15.5t-52.5 -41t-30 -67t-14 -82.5t-3.5 -99z" />
<glyph unicode="c" horiz-adv-x="983" d="M96 535q0 125 29.5 222t76.5 156.5t111.5 98t127.5 53t132 14.5q216 0 353 -143l-181 -180q-42 45 -81 64.5t-91 19.5q-93 0 -151 -70q-60 -75 -60 -235q0 -163 60 -238q58 -70 151 -70q52 0 91 19.5t81 64.5l181 -178q-139 -145 -353 -145q-68 0 -131.5 15t-128 54 t-111.5 98.5t-76.5 157t-29.5 222.5z" />
<glyph unicode="d" horiz-adv-x="1148" d="M104 535q0 77 2.5 125.5t12 115.5t33 118t61.5 89q45 45 114 70.5t146 25.5q84 0 146.5 -24.5t113.5 -81.5v485h266v-1458h-260v100q-55 -61 -116.5 -86.5t-147.5 -25.5q-78 0 -148 26t-114 70q-38 38 -61.5 89.5t-33 119t-12 116t-2.5 126.5zM371 535q0 -58 3.5 -99.5 t14 -83.5t30 -67.5t52.5 -41.5t80 -16q58 0 95.5 22.5t55.5 68t24.5 95t6.5 122.5q0 58 -3.5 99.5t-14.5 82.5t-30.5 66.5t-53 41t-80.5 15.5t-80 -15.5t-52.5 -41t-30 -67t-14 -82.5t-3.5 -99z" />
<glyph unicode="e" horiz-adv-x="1122" d="M96 535q0 257 127 400.5t338 143.5q145 0 251.5 -66.5t160 -181t53.5 -262.5v-118h-668q0 -106 62 -172t172 -66q84 0 136 23t106 77l161 -157q-88 -88 -178 -128t-227 -40q-80 0 -148.5 15t-134 53.5t-111 99t-73 157.5t-27.5 222zM358 633h406q-3 60 -25 115 q-51 110 -178 110t-178 -110q-22 -55 -25 -115z" />
<glyph unicode="f" horiz-adv-x="700" d="M72 834v202h110v133q0 59 18.5 112.5t55.5 97.5t98.5 70t139.5 26h151v-226h-104q-92 0 -92 -96v-117h196v-202h-196v-834h-267v834h-110z" />
<glyph unicode="g" horiz-adv-x="1136" d="M104 563q0 163 20 258t89 164q94 94 256 94q85 0 145 -25.5t115 -86.5v100h258v-1028q0 -195 -128 -318.5t-341 -123.5q-127 0 -216.5 31t-170.5 108l166 168q45 -43 93.5 -62.5t115.5 -19.5q111 0 163 64t52 157v109q-96 -107 -254 -107q-160 0 -254 94q-69 69 -89 165 t-20 259zM371 563q0 -49 3 -84t13 -74t28.5 -63.5t51 -40.5t78.5 -16t79 16t51.5 40.5t29 63.5t13.5 74.5t3 83.5t-3 83.5t-13.5 74t-29 63t-51.5 40.5t-79 16t-78.5 -16t-51 -40t-28.5 -63t-13 -74t-3 -84z" />
<glyph unicode="h" horiz-adv-x="1165" d="M150 0v1458h266v-489q107 110 256 110q170 0 263 -107.5t93 -281.5v-690h-266v651q0 98 -51 143.5t-123 45.5q-71 0 -121.5 -46t-50.5 -143v-651h-266z" />
<glyph unicode="i" horiz-adv-x="563" d="M145 1249v217h273v-217h-273zM150 0v1067h266v-1067h-266z" />
<glyph unicode="j" horiz-adv-x="563" d="M-47 -174h102q50 0 72.5 24t22.5 72v1145h266v-1161q0 -59 -18.5 -112t-55 -97t-98 -70t-140.5 -26h-151v225zM145 1249v217h273v-217h-273z" />
<glyph unicode="k" horiz-adv-x="1144" d="M150 0v1458h266v-827l354 436h322l-381 -430l409 -637h-329l-263 444l-112 -127v-317h-266z" />
<glyph unicode="l" horiz-adv-x="665" d="M139 305v1153h267v-1136q0 -49 22 -73t72 -24h102v-225h-151q-79 0 -140.5 26t-98 70t-55 97t-18.5 112z" />
<glyph unicode="m" horiz-adv-x="1794" d="M150 0v1067h260v-98q52 53 121.5 81.5t144.5 28.5q182 0 282 -135q68 71 144 103t176 32q79 0 148.5 -25t113.5 -69q117 -117 117 -303v-682h-266v645q0 100 -52.5 147.5t-124.5 47.5q-71 0 -124.5 -46.5t-53.5 -142.5v-651h-266v645q0 100 -52 147.5t-124 47.5 q-73 0 -125.5 -47.5t-52.5 -147.5v-645h-266z" />
<glyph unicode="n" horiz-adv-x="1173" d="M150 0v1067h260v-98q104 110 266 110q158 0 252 -94q61 -61 84.5 -134t23.5 -169v-682h-266v645q0 100 -52 147.5t-124 47.5q-73 0 -125.5 -47.5t-52.5 -147.5v-645h-266z" />
<glyph unicode="o" d="M104 535q0 152 26 246.5t95 166.5q124 131 330 131q208 0 332 -131q69 -72 95 -166.5t26 -246.5q0 -154 -26 -249t-95 -167q-124 -131 -332 -131q-206 0 -330 131q-69 72 -95 167t-26 249zM371 535q0 -99 11.5 -161t49.5 -100q47 -47 123 -47q78 0 125 47q38 38 49.5 100 t11.5 161q0 98 -11.5 159t-49.5 99q-47 47 -125 47q-76 0 -123 -47q-38 -38 -49.5 -99t-11.5 -159z" />
<glyph unicode="p" horiz-adv-x="1146" d="M150 -391v1458h258v-100q55 60 117.5 86t148.5 26q77 0 146 -25.5t114 -70.5q38 -38 61.5 -89t32.5 -118.5t11.5 -114.5t2.5 -126t-2.5 -126.5t-11.5 -115.5t-32.5 -119.5t-61.5 -89.5q-45 -45 -114 -70.5t-146 -25.5q-84 0 -145.5 24.5t-112.5 81.5v-485h-266zM416 535 q0 -58 3.5 -99.5t14 -83.5t30 -67.5t52.5 -41.5t80 -16t80 16t52.5 41.5t30 67.5t14 83.5t3.5 99.5t-3.5 99t-14 82.5t-30 67t-52.5 41t-80 15.5t-80 -15.5t-52.5 -41t-30 -67t-14 -82.5t-3.5 -99z" />
<glyph unicode="q" horiz-adv-x="1148" d="M104 535q0 77 2.5 125.5t12 115.5t33 118t61.5 89q44 44 114 70t148 26q86 0 147.5 -25.5t116.5 -86.5v100h260v-1458h-266v485q-51 -57 -113.5 -81.5t-146.5 -24.5q-77 0 -146 25.5t-114 70.5q-38 38 -61.5 89.5t-33 119t-12 116t-2.5 126.5zM371 535q0 -58 3.5 -99.5 t14 -83.5t30 -67.5t52.5 -41.5t80 -16q58 0 95.5 22.5t55.5 68t24.5 95t6.5 122.5q0 58 -3.5 99.5t-14.5 82.5t-30.5 66.5t-53 41t-80.5 15.5t-80 -15.5t-52.5 -41t-30 -67t-14 -82.5t-3.5 -99z" />
<glyph unicode="r" horiz-adv-x="931" d="M150 0v1067h260v-102q41 49 113.5 81.5t154.5 32.5q80 0 139 -23t113 -77l-201 -203q-34 34 -64.5 49t-76.5 15q-68 0 -120 -51t-52 -146v-643h-266z" />
<glyph unicode="s" horiz-adv-x="1026" d="M45 141l174 174q100 -100 285 -100q78 0 133 27.5t55 83.5q0 87 -112 98l-168 16q-152 14 -232 85.5t-80 213.5q0 106 58.5 185t150.5 117t203 38q275 0 408 -125l-164 -166q-80 72 -248 72q-75 0 -113.5 -29.5t-38.5 -72.5q0 -83 111 -92l168 -17q157 -15 237 -95.5 t80 -217.5q0 -86 -35 -153.5t-97 -109.5t-143 -63.5t-177 -21.5q-148 0 -255 30t-200 123z" />
<glyph unicode="t" horiz-adv-x="720" d="M61 834v202h113v316h266v-316h189v-202h-189v-512q0 -97 92 -97h97v-225h-146q-78 0 -139 26t-97 70t-54.5 97t-18.5 112v529h-113z" />
<glyph unicode="u" horiz-adv-x="1173" d="M137 385v682h266v-645q0 -100 52.5 -147.5t124.5 -47.5q73 0 125.5 47.5t52.5 147.5v645h266v-1067h-260v98q-104 -110 -266 -110q-158 0 -252 94q-61 61 -85 134.5t-24 168.5z" />
<glyph unicode="v" horiz-adv-x="1009" d="M8 1067h281l217 -659l215 659h280l-391 -1067h-209z" />
<glyph unicode="w" horiz-adv-x="1554" d="M8 1067h283l172 -659l217 659h194l220 -659l172 659h280l-325 -1067h-220l-223 670l-223 -670h-219z" />
<glyph unicode="x" horiz-adv-x="1079" d="M25 0l368 545l-354 522h319l181 -305l182 305h319l-354 -522l369 -545h-320l-196 319l-195 -319h-319z" />
<glyph unicode="y" horiz-adv-x="1011" d="M8 1067h281l221 -659l213 659h281l-457 -1239q-36 -93 -80 -137q-82 -82 -229 -82h-105v239h62q58 0 85.5 19.5t47.5 77.5l45 131z" />
<glyph unicode="z" horiz-adv-x="978" d="M76 0v203l473 624h-447v240h787v-203l-479 -624h479v-240h-813z" />
<glyph unicode="{" horiz-adv-x="935" d="M88 610v238h94q68 0 107 39q35 35 35 123v297q0 141 86 227q76 76 229 76h209v-240h-109q-87 0 -116 -29q-33 -36 -33 -131v-276q0 -52 -13.5 -90.5t-38.5 -61t-43.5 -33t-45.5 -20.5q27 -10 45.5 -20.5t43.5 -33t38.5 -61t13.5 -90.5v-276q0 -95 33 -131q29 -29 116 -29 h109v-240h-209q-153 0 -229 76q-86 86 -86 228v297q0 87 -35 122q-39 39 -107 39h-94z" />
<glyph unicode="|" horiz-adv-x="716" d="M225 -152v1762h267v-1762h-267z" />
<glyph unicode="}" horiz-adv-x="935" d="M88 88h109q87 0 116 29q33 36 33 131v276q0 52 13.5 90.5t38.5 61t43.5 33t45.5 20.5q-27 10 -45.5 20.5t-43.5 33t-38.5 61t-13.5 90.5v276q0 95 -33 131q-29 29 -116 29h-109v240h209q153 0 229 -76q86 -86 86 -227v-297q0 -88 35 -123q39 -39 107 -39h94v-238h-94 q-68 0 -107 -39q-35 -35 -35 -122v-297q0 -142 -86 -228q-76 -76 -229 -76h-209v240z" />
<glyph unicode="~" horiz-adv-x="1241" d="M76 600q97 97 170.5 136.5t165.5 39.5q110 0 239 -69q95 -50 166 -50q47 0 86 16.5t92 69.5l170 -168q-97 -97 -171.5 -136.5t-166.5 -39.5q-108 0 -239 70q-93 49 -168 49q-47 0 -85 -16.5t-91 -69.5z" />
<glyph unicode="&#xa1;" horiz-adv-x="710" d="M154 -391l65 1001h199l65 -1001h-329zM178 795v272h281v-272h-281z" />
<glyph unicode="&#xa2;" horiz-adv-x="1021" d="M96 750q0 227 104.5 363.5t274.5 170.5v174h207v-174q159 -28 279 -154l-177 -172q-64 67 -131 84v-585q67 17 131 84l177 -172q-120 -126 -279 -154v-215h-207v215q-170 34 -274.5 171t-104.5 364zM362 750q0 -156 64 -236q30 -41 78 -53v577q-45 -12 -78 -53 q-64 -80 -64 -235z" />
<glyph unicode="&#xa3;" horiz-adv-x="1185" d="M82 608v205h125v166q0 117 42 212t114 155t163.5 92t194.5 32q120 0 206 -34t167 -115l-187 -186q-41 41 -81.5 61.5t-104.5 20.5q-107 0 -169.5 -63.5t-62.5 -186.5v-154h232v-205h-232v-354h605v-254h-887v608h-125z" />
<glyph unicode="&#xa4;" horiz-adv-x="1370" d="M119 197l151 149q-67 114 -67 240q0 125 67 239l-151 150l176 176l151 -150q113 66 238 66q127 0 240 -66l151 150l174 -176l-149 -150q65 -111 65 -239q0 -129 -65 -240l149 -149l-174 -177l-151 150q-113 -66 -240 -66q-125 0 -238 66l-151 -150zM444 586 q0 -100 70 -170t170 -70t171 70t71 170q0 99 -71 169t-171 70t-170 -69.5t-70 -169.5z" />
<glyph unicode="&#xa5;" horiz-adv-x="1169" d="M6 1458h309l271 -590l270 590h307l-278 -553h151v-205h-256l-53 -102v-104h309v-205h-309v-289h-283v289h-311v205h311v104l-53 102h-258v205h154z" />
<glyph unicode="&#xa6;" horiz-adv-x="722" d="M225 -152v717h267v-717h-267zM225 893v717h267v-717h-267z" />
<glyph unicode="&#xa7;" horiz-adv-x="1087" d="M125 543q0 104 57.5 185.5t128.5 119.5q-155 81 -155 268q0 70 24.5 133t71.5 113t124 79t173 29q192 0 291.5 -98t101.5 -254h-250q-6 125 -143 125q-69 0 -106 -33.5t-37 -87.5q0 -90 137 -135l127 -41q153 -49 226 -138.5t73 -246.5q0 -103 -57.5 -184t-127.5 -121 q166 -83 166 -285q0 -91 -34.5 -164t-92 -118t-129 -68.5t-149.5 -23.5q-61 0 -118.5 12.5t-110 41t-91.5 70t-63 103t-25 137.5h256q3 -58 43.5 -93.5t108.5 -35.5q70 0 109.5 36t39.5 95q0 104 -143 152l-127 43q-154 52 -226.5 140t-72.5 245zM381 551q0 -88 49 -137 q43 -43 117 -43q72 0 115 43q51 51 51 137q0 88 -51 139q-46 43 -115 43q-74 0 -117 -43q-49 -49 -49 -139z" />
<glyph unicode="&#xa8;" horiz-adv-x="1024" d="M172 1241v256h227v-256h-227zM625 1241v256h227v-256h-227z" />
<glyph unicode="&#xa9;" horiz-adv-x="1728" d="M123 729q0 151 58.5 288.5t157.5 236.5t236.5 157.5t288.5 58.5q202 0 372.5 -99t270 -269.5t99.5 -372.5t-99.5 -372.5t-270 -269.5t-372.5 -99q-151 0 -288.5 58.5t-236.5 157.5t-157.5 236.5t-58.5 288.5zM299 729q0 -162 75 -294t204 -206.5t286 -74.5t286 74.5 t203 206.5t74 294q0 122 -43.5 229t-118.5 183t-179.5 120t-221.5 44t-221.5 -44t-180 -120t-119.5 -183t-44 -229zM512 729q0 190 103.5 297t263.5 107q82 0 144.5 -27t125.5 -82l-115 -115q-42 36 -76 51t-79 15q-95 0 -144 -65.5t-49 -180.5t49 -180.5t144 -65.5 q45 0 79 15t76 51l115 -115q-118 -106 -270 -106q-160 0 -263.5 105.5t-103.5 295.5z" />
<glyph unicode="&#xaa;" horiz-adv-x="929" d="M98 864q0 108 74.5 178t216.5 70h199v41q0 70 -37 101.5t-121 31.5q-59 0 -93.5 -15t-68.5 -54l-137 133q61 67 130.5 92.5t178.5 25.5q179 0 271 -76t92 -225v-561h-211v74q-44 -44 -90 -63t-117 -19q-140 0 -215 78q-72 72 -72 188zM307 870q0 -44 29.5 -69t87.5 -25 q48 0 78 8t55 31q31 27 31 105v47h-166q-56 0 -85.5 -26.5t-29.5 -70.5z" />
<glyph unicode="&#xab;" horiz-adv-x="1286" d="M70 563l510 508v-317l-193 -191l193 -190v-318zM639 563l512 508v-317l-197 -191l197 -190v-318z" />
<glyph unicode="&#xac;" d="M94 489v248h924v-544h-248v296h-676z" />
<glyph unicode="&#xad;" horiz-adv-x="872" d="M121 461v248h631v-248h-631z" />
<glyph unicode="&#xae;" horiz-adv-x="1728" d="M123 729q0 151 58.5 288.5t157.5 236.5t236.5 157.5t288.5 58.5q202 0 372.5 -99t270 -269.5t99.5 -372.5t-99.5 -372.5t-270 -269.5t-372.5 -99q-151 0 -288.5 58.5t-236.5 157.5t-157.5 236.5t-58.5 288.5zM299 729q0 -162 74.5 -294t203.5 -206.5t287 -74.5 q240 0 403 164.5t163 410.5q0 122 -44 229t-119 183t-180 120t-223 44q-158 0 -287 -74.5t-203.5 -207t-74.5 -294.5zM594 336v788h321q117 0 190 -72.5t73 -174.5q0 -76 -41.5 -129.5t-104.5 -79.5l166 -332h-201l-143 305h-84v-305h-176zM770 774h123q48 0 78 30t30 73 t-30 72.5t-78 29.5h-123v-205z" />
<glyph unicode="&#xaf;" horiz-adv-x="1024" d="M186 1276v180h650v-180h-650z" />
<glyph unicode="&#xb0;" horiz-adv-x="978" d="M113 1110q0 157 110 268t266 111q157 0 267 -111t110 -268t-110 -267t-267 -110t-266.5 110t-109.5 267zM328 1110q0 -69 46.5 -116.5t114.5 -47.5t115 47.5t47 116.5t-48 116.5t-116 47.5q-67 0 -113 -47.5t-46 -116.5z" />
<glyph unicode="&#xb1;" d="M102 0v250h908v-250h-908zM102 698v248h330v330h250v-330h328v-248h-328v-329h-250v329h-330z" />
<glyph unicode="&#xb2;" horiz-adv-x="733" d="M88 584v174l320 350q45 48 45 96q0 40 -22.5 64t-63.5 24q-37 0 -61.5 -20.5t-24.5 -69.5h-193q0 123 79.5 193.5t199.5 70.5q123 0 200.5 -70.5t77.5 -191.5q0 -62 -24 -106t-82 -107l-215 -233h321v-174h-557z" />
<glyph unicode="&#xb3;" horiz-adv-x="753" d="M88 846h193q0 -47 27 -72.5t69 -25.5q44 0 70 26.5t26 75.5q0 43 -27.5 70.5t-72.5 27.5h-27v166h27q44 0 67 26t23 62q0 42 -25 66t-61 24q-37 0 -61.5 -23t-24.5 -63h-193q0 118 80 189t199 71q121 0 199.5 -72.5t78.5 -185.5q0 -115 -92 -172q103 -67 103 -192 q0 -130 -83 -199.5t-206 -69.5q-56 0 -106.5 15.5t-92 47t-66 85t-24.5 123.5z" />
<glyph unicode="&#xb4;" horiz-adv-x="1024" d="M399 1237l131 348h281l-233 -348h-179z" />
<glyph unicode="&#xb5;" horiz-adv-x="1179" d="M143 -391v1458h267v-645q0 -100 52 -147.5t124 -47.5q73 0 125.5 47.5t52.5 147.5v645h266v-1067h-260v98q-104 -110 -266 -110q-55 0 -94 28v-407h-267z" />
<glyph unicode="&#xb6;" horiz-adv-x="1368" d="M72 1042q0 198 128.5 307t344.5 109h653v-1849h-266v1595h-205v-1595h-266v1022q-155 0 -272 121.5t-117 289.5z" />
<glyph unicode="&#xb7;" horiz-adv-x="583" d="M139 434v303h305v-303h-305z" />
<glyph unicode="&#xb8;" horiz-adv-x="1024" d="M328 -422l141 299h197l-91 -299h-247z" />
<glyph unicode="&#xb9;" horiz-adv-x="598" d="M78 1081v217l184 160h195v-874h-195v657z" />
<glyph unicode="&#xba;" horiz-adv-x="946" d="M113 1032q0 121 21 197t77 135q100 104 262 104t262 -104q56 -59 77.5 -135t21.5 -197q0 -122 -21 -196t-78 -134q-100 -104 -262 -104t-262 104q-56 59 -77 133.5t-21 196.5zM328 1032q0 -78 9 -127t38 -78q36 -36 98 -36t98 36q29 29 38 78t9 127t-9 128t-38 79 q-37 37 -98 37t-98 -37q-29 -29 -38 -79t-9 -128z" />
<glyph unicode="&#xbb;" horiz-adv-x="1286" d="M137 55v318l195 190l-195 191v317l510 -508zM707 55v318l192 190l-192 191v317l512 -508z" />
<glyph unicode="&#xbc;" horiz-adv-x="1712" d="M78 1081v217l184 160h195v-874h-195v657zM381 0l690 1458h209l-690 -1458h-209zM1018 117v182l293 575h211l-295 -575h151v127h185v-127h67v-182h-67v-117h-185v117h-360z" />
<glyph unicode="&#xbd;" horiz-adv-x="1765" d="M78 1081v217l184 160h195v-874h-195v657zM373 0l690 1458h207l-690 -1458h-207zM1120 0v174l320 350q47 50 47 97q0 40 -23.5 64t-64.5 24q-36 0 -60 -21t-24 -70h-195q0 123 79.5 194t199.5 71q123 0 200.5 -70.5t77.5 -191.5q0 -62 -24 -106t-82 -107l-215 -234h321 v-174h-557z" />
<glyph unicode="&#xbe;" horiz-adv-x="1771" d="M88 846h193q0 -47 27 -72.5t69 -25.5q44 0 70 26.5t26 75.5q0 43 -27.5 70.5t-72.5 27.5h-27v166h27q44 0 67 26t23 62q0 42 -25 66t-61 24q-37 0 -61.5 -23t-24.5 -63h-193q0 118 80 189t199 71q121 0 199.5 -72.5t78.5 -185.5q0 -115 -92 -172q103 -67 103 -192 q0 -130 -83 -199.5t-206 -69.5q-56 0 -106.5 15.5t-92 47t-66 85t-24.5 123.5zM446 0l691 1458h209l-691 -1458h-209zM1077 117v182l293 575h211l-295 -575h152v127h184v-127h68v-182h-68v-117h-184v117h-361z" />
<glyph unicode="&#xbf;" horiz-adv-x="1071" d="M74 6q0 123 100 256l152 203q36 49 36 104v41h267v-61q0 -63 -18 -110.5t-60 -102.5l-152 -195q-59 -77 -59 -137q0 -74 44.5 -121t119.5 -47q79 0 122.5 49t43.5 123h266q0 -124 -58.5 -218.5t-156 -143.5t-217.5 -49q-117 0 -213.5 47t-156.5 141.5t-60 220.5zM354 795 v272h283v-272h-283z" />
<glyph unicode="&#xc0;" horiz-adv-x="1306" d="M10 0l531 1458h223l532 -1458h-297l-86 258h-518l-88 -258h-297zM350 1948h281l131 -349h-178zM475 498h363l-179 530z" />
<glyph unicode="&#xc1;" horiz-adv-x="1306" d="M10 0l531 1458h223l532 -1458h-297l-86 258h-518l-88 -258h-297zM475 498h363l-179 530zM537 1599l131 349h280l-233 -349h-178z" />
<glyph unicode="&#xc2;" horiz-adv-x="1306" d="M10 0l531 1458h223l532 -1458h-297l-86 258h-518l-88 -258h-297zM272 1599l271 347h213l270 -347h-207l-170 187l-170 -187h-207zM475 498h363l-179 530z" />
<glyph unicode="&#xc3;" horiz-adv-x="1306" d="M10 0l531 1458h223l532 -1458h-297l-86 258h-518l-88 -258h-297zM279 1759q66 67 117.5 94t111.5 27q81 0 158 -47q61 -37 112 -37q32 0 58 11t63 48l119 -116q-67 -67 -120 -94t-112 -27q-82 0 -159 47q-63 37 -115 37q-30 0 -56 -11.5t-63 -48.5zM475 498h363l-179 530 z" />
<glyph unicode="&#xc4;" horiz-adv-x="1306" d="M10 0l531 1458h223l532 -1458h-297l-86 258h-518l-88 -258h-297zM313 1604v256h228v-256h-228zM475 498h363l-179 530zM766 1604v256h227v-256h-227z" />
<glyph unicode="&#xc5;" horiz-adv-x="1306" d="M10 0l531 1458h223l532 -1458h-297l-86 258h-518l-88 -258h-297zM381 1810q0 110 79 189.5t189 79.5q111 0 190 -78.5t79 -190.5q0 -110 -79.5 -189t-189.5 -79t-189 79t-79 189zM475 498h363l-179 530zM530 1810q0 -50 35 -85t84 -35t84 35t35 85t-35 84.5t-84 34.5 t-84 -34.5t-35 -84.5z" />
<glyph unicode="&#xc6;" horiz-adv-x="2004" d="M6 0l762 1458h1128v-254h-675v-344h577v-254h-577v-352h675v-254h-958v319h-461l-166 -319h-305zM600 559h338v645z" />
<glyph unicode="&#xc7;" horiz-adv-x="1269" d="M121 729q0 240 24 363q24 124 119 219q159 159 393 159q214 0 357.5 -120t179.5 -340h-289q-24 98 -85.5 152.5t-160.5 54.5q-118 0 -182 -76q-44 -47 -57.5 -124t-13.5 -288t13.5 -288t57.5 -124q63 -75 182 -75q99 0 160.5 54.5t85.5 152.5h289q-36 -220 -180 -340.5 t-357 -120.5q-234 0 -393 159q-95 95 -119 220q-24 123 -24 362zM438 -422l142 299h196l-90 -299h-248z" />
<glyph unicode="&#xc8;" horiz-adv-x="1239" d="M170 0v1458h960v-254h-675v-342h575v-254h-575v-354h675v-254h-960zM336 1948h280l132 -349h-179z" />
<glyph unicode="&#xc9;" horiz-adv-x="1239" d="M170 0v1458h960v-254h-675v-342h575v-254h-575v-354h675v-254h-960zM520 1599l131 349h281l-234 -349h-178z" />
<glyph unicode="&#xca;" horiz-adv-x="1239" d="M170 0v1458h960v-254h-675v-342h575v-254h-575v-354h675v-254h-960zM258 1599l270 347h213l271 -347h-207l-170 187l-170 -187h-207z" />
<glyph unicode="&#xcb;" horiz-adv-x="1239" d="M170 0v1458h960v-254h-675v-342h575v-254h-575v-354h675v-254h-960zM295 1604v256h227v-256h-227zM748 1604v256h227v-256h-227z" />
<glyph unicode="&#xcc;" horiz-adv-x="624" d="M43 1948h281l131 -349h-179zM170 0v1458h285v-1458h-285z" />
<glyph unicode="&#xcd;" horiz-adv-x="624" d="M170 0v1458h285v-1458h-285zM170 1599l131 349h281l-234 -349h-178z" />
<glyph unicode="&#xce;" horiz-adv-x="624" d="M-66 1599l271 347h213l270 -347h-207l-170 187l-170 -187h-207zM170 0v1458h285v-1458h-285z" />
<glyph unicode="&#xcf;" horiz-adv-x="624" d="M-27 1604v256h228v-256h-228zM170 0v1458h285v-1458h-285zM426 1604v256h227v-256h-227z" />
<glyph unicode="&#xd0;" horiz-adv-x="1396" d="M76 629v217h141v612h526q254 0 404 -172q27 -31 48 -64t34.5 -60.5t22.5 -68.5t14 -66.5t7.5 -79t2.5 -81.5v-96v-14v-13v-14q0 -222 -9 -294q-19 -141 -100 -241q-9 -12 -20 -24q-73 -81 -178 -125.5t-230 -44.5h-522v629h-141zM502 252h215q156 0 227 108q31 44 39 107 t8 258q0 192 -9.5 260.5t-41.5 114.5q-74 106 -223 106h-215v-360h237v-217h-237v-377z" />
<glyph unicode="&#xd1;" horiz-adv-x="1456" d="M170 0v1458h254l577 -893v893h285v-1458h-254l-577 895v-895h-285zM358 1759q65 67 117 94t113 27q80 0 157 -47q61 -37 113 -37q32 0 58 11t63 48l119 -116q-67 -67 -120 -94t-112 -27q-82 0 -159 47q-63 37 -115 37q-30 0 -56 -11.5t-63 -48.5z" />
<glyph unicode="&#xd2;" horiz-adv-x="1318" d="M121 709v20q0 221 12 304q26 172 131 278q159 159 395 159q235 0 394 -159q36 -36 61.5 -74.5t41.5 -88t25 -86.5t12.5 -105t4 -105t0.5 -123t-0.5 -123t-4 -105t-12.5 -105t-25 -86.5t-41.5 -88t-61.5 -74.5q-159 -159 -394 -159q-236 0 -395 159q-35 35 -60 72.5 t-40.5 85t-24.5 84.5t-13 100.5t-4.5 102t-0.5 117.5zM360 1948h281l131 -349h-178zM406 729q0 -208 13.5 -285.5t55.5 -124.5q67 -77 184 -77q116 0 183 77q42 47 56.5 125.5t14.5 284.5t-14.5 284.5t-56.5 125.5q-68 78 -183 78q-116 0 -184 -78q-42 -47 -55.5 -124.5 t-13.5 -285.5z" />
<glyph unicode="&#xd3;" horiz-adv-x="1318" d="M121 709v20q0 221 12 304q26 172 131 278q159 159 395 159q235 0 394 -159q36 -36 61.5 -74.5t41.5 -88t25 -86.5t12.5 -105t4 -105t0.5 -123t-0.5 -123t-4 -105t-12.5 -105t-25 -86.5t-41.5 -88t-61.5 -74.5q-159 -159 -394 -159q-236 0 -395 159q-35 35 -60 72.5 t-40.5 85t-24.5 84.5t-13 100.5t-4.5 102t-0.5 117.5zM406 729q0 -208 13.5 -285.5t55.5 -124.5q67 -77 184 -77q116 0 183 77q42 47 56.5 125.5t14.5 284.5t-14.5 284.5t-56.5 125.5q-68 78 -183 78q-116 0 -184 -78q-42 -47 -55.5 -124.5t-13.5 -285.5zM547 1599l131 349 h280l-233 -349h-178z" />
<glyph unicode="&#xd4;" horiz-adv-x="1318" d="M121 709v20q0 221 12 304q26 172 131 278q159 159 395 159q235 0 394 -159q36 -36 61.5 -74.5t41.5 -88t25 -86.5t12.5 -105t4 -105t0.5 -123t-0.5 -123t-4 -105t-12.5 -105t-25 -86.5t-41.5 -88t-61.5 -74.5q-159 -159 -394 -159q-236 0 -395 159q-35 35 -60 72.5 t-40.5 85t-24.5 84.5t-13 100.5t-4.5 102t-0.5 117.5zM283 1599l270 347h213l270 -347h-207l-170 187l-170 -187h-206zM406 729q0 -208 13.5 -285.5t55.5 -124.5q67 -77 184 -77q116 0 183 77q42 47 56.5 125.5t14.5 284.5t-14.5 284.5t-56.5 125.5q-68 78 -183 78 q-116 0 -184 -78q-42 -47 -55.5 -124.5t-13.5 -285.5z" />
<glyph unicode="&#xd5;" horiz-adv-x="1318" d="M121 709v20q0 221 12 304q26 172 131 278q159 159 395 159q235 0 394 -159q36 -36 61.5 -74.5t41.5 -88t25 -86.5t12.5 -105t4 -105t0.5 -123t-0.5 -123t-4 -105t-12.5 -105t-25 -86.5t-41.5 -88t-61.5 -74.5q-159 -159 -394 -159q-236 0 -395 159q-35 35 -60 72.5 t-40.5 85t-24.5 84.5t-13 100.5t-4.5 102t-0.5 117.5zM289 1759q66 67 117.5 94t111.5 27q81 0 158 -47q61 -37 112 -37q32 0 58 11t63 48l119 -116q-67 -67 -119.5 -94t-111.5 -27q-83 0 -160 47q-63 37 -115 37q-30 0 -56 -11.5t-63 -48.5zM406 729q0 -208 13.5 -285.5 t55.5 -124.5q67 -77 184 -77q116 0 183 77q42 47 56.5 125.5t14.5 284.5t-14.5 284.5t-56.5 125.5q-68 78 -183 78q-116 0 -184 -78q-42 -47 -55.5 -124.5t-13.5 -285.5z" />
<glyph unicode="&#xd6;" horiz-adv-x="1318" d="M121 709v20q0 221 12 304q26 172 131 278q159 159 395 159q235 0 394 -159q36 -36 61.5 -74.5t41.5 -88t25 -86.5t12.5 -105t4 -105t0.5 -123t-0.5 -123t-4 -105t-12.5 -105t-25 -86.5t-41.5 -88t-61.5 -74.5q-159 -159 -394 -159q-236 0 -395 159q-35 35 -60 72.5 t-40.5 85t-24.5 84.5t-13 100.5t-4.5 102t-0.5 117.5zM319 1604v256h228v-256h-228zM406 729q0 -208 13.5 -285.5t55.5 -124.5q67 -77 184 -77q116 0 183 77q42 47 56.5 125.5t14.5 284.5t-14.5 284.5t-56.5 125.5q-68 78 -183 78q-116 0 -184 -78q-42 -47 -55.5 -124.5 t-13.5 -285.5zM772 1604v256h227v-256h-227z" />
<glyph unicode="&#xd7;" d="M100 297l289 289l-289 288l168 168l287 -288l289 288l168 -168l-289 -288l289 -289l-168 -168l-289 289l-287 -289z" />
<glyph unicode="&#xd8;" horiz-adv-x="1335" d="M121 709v20q0 221 12 304q26 172 131 278q159 159 395 159q133 0 232 -45l59 123h201l-109 -227l11 -10q36 -36 61.5 -74.5t41.5 -88t25 -86.5t12.5 -105t4 -105t0.5 -123t-0.5 -123t-4 -105t-12.5 -105t-25 -86.5t-41.5 -88t-61.5 -74.5q-159 -159 -394 -159 q-132 0 -231 45l-59 -123h-203l108 227l-10 10q-35 35 -60 72.5t-40.5 85t-24.5 84.5t-13 100.5t-4.5 102t-0.5 117.5zM406 729q0 -233 18 -309l364 764q-53 33 -129 33q-116 0 -184 -78q-42 -47 -55.5 -124.5t-13.5 -285.5zM528 276q55 -34 131 -34q116 0 183 77 q42 47 56.5 125.5t14.5 284.5q0 225 -20 309z" />
<glyph unicode="&#xd9;" horiz-adv-x="1368" d="M147 500v958h285v-948q0 -125 68 -196.5t184 -71.5t185 71.5t69 196.5v948h283v-958q0 -151 -72 -269t-194 -180.5t-271 -62.5t-271 62.5t-194 180.5t-72 269zM385 1948h281l131 -349h-179z" />
<glyph unicode="&#xda;" horiz-adv-x="1368" d="M147 500v958h285v-948q0 -125 68 -196.5t184 -71.5t185 71.5t69 196.5v948h283v-958q0 -151 -72 -269t-194 -180.5t-271 -62.5t-271 62.5t-194 180.5t-72 269zM571 1599l131 349h281l-233 -349h-179z" />
<glyph unicode="&#xdb;" horiz-adv-x="1368" d="M147 500v958h285v-948q0 -125 68 -196.5t184 -71.5t185 71.5t69 196.5v948h283v-958q0 -151 -72 -269t-194 -180.5t-271 -62.5t-271 62.5t-194 180.5t-72 269zM307 1599l271 347h213l270 -347h-207l-170 187l-170 -187h-207z" />
<glyph unicode="&#xdc;" horiz-adv-x="1368" d="M147 500v958h285v-948q0 -125 68 -196.5t184 -71.5t185 71.5t69 196.5v948h283v-958q0 -151 -72 -269t-194 -180.5t-271 -62.5t-271 62.5t-194 180.5t-72 269zM344 1604v256h227v-256h-227zM797 1604v256h227v-256h-227z" />
<glyph unicode="&#xdd;" horiz-adv-x="1171" d="M6 1458h309l273 -588l268 588h309l-438 -860v-598h-283v598zM471 1599l131 349h281l-234 -349h-178z" />
<glyph unicode="&#xde;" horiz-adv-x="1296" d="M170 0v1458h285v-268h280q219 0 350.5 -130.5t131.5 -322.5t-131.5 -323t-350.5 -131h-280v-283h-285zM455 537h266q96 0 153.5 55t57.5 145t-57.5 144.5t-153.5 54.5h-266v-399z" />
<glyph unicode="&#xdf;" horiz-adv-x="1175" d="M150 0v1067q0 204 125 303.5t335 99.5q203 0 324 -89.5t121 -268.5q0 -154 -125 -231q63 -32 95 -82.5t32 -141.5v-327q0 -163 -84 -244q-86 -86 -258 -86h-107v225h54q56 0 92 31q34 30 34 96v295q0 62 -30 92q-33 33 -92 33h-58v209h58q53 0 87.5 31t34.5 92 q0 57 -38 92q-46 43 -144 43q-103 0 -146.5 -48.5t-43.5 -143.5v-1047h-266z" />
<glyph unicode="&#xe0;" horiz-adv-x="1093" d="M74 324q0 135 93 222t271 87h252v53q0 88 -46.5 128t-151.5 40q-75 0 -118.5 -19.5t-86.5 -68.5l-170 166q76 84 162 115.5t223 31.5q225 0 339.5 -95t114.5 -282v-702h-260v92q-55 -55 -113.5 -78.5t-148.5 -23.5q-178 0 -272 94q-88 91 -88 240zM236 1585h280l131 -348 h-178zM330 330q0 -57 38.5 -90t114.5 -33q62 0 98.5 9.5t69.5 41.5q39 36 39 135v58h-211q-72 0 -110.5 -32t-38.5 -89z" />
<glyph unicode="&#xe1;" horiz-adv-x="1093" d="M74 324q0 135 93 222t271 87h252v53q0 88 -46.5 128t-151.5 40q-75 0 -118.5 -19.5t-86.5 -68.5l-170 166q76 84 162 115.5t223 31.5q225 0 339.5 -95t114.5 -282v-702h-260v92q-55 -55 -113.5 -78.5t-148.5 -23.5q-178 0 -272 94q-88 91 -88 240zM330 330 q0 -57 38.5 -90t114.5 -33q62 0 98.5 9.5t69.5 41.5q39 36 39 135v58h-211q-72 0 -110.5 -32t-38.5 -89zM422 1237l131 348h281l-234 -348h-178z" />
<glyph unicode="&#xe2;" horiz-adv-x="1093" d="M74 324q0 135 93 222t271 87h252v53q0 88 -46.5 128t-151.5 40q-75 0 -118.5 -19.5t-86.5 -68.5l-170 166q76 84 162 115.5t223 31.5q225 0 339.5 -95t114.5 -282v-702h-260v92q-55 -55 -113.5 -78.5t-148.5 -23.5q-178 0 -272 94q-88 91 -88 240zM158 1237l270 346h213 l270 -346h-206l-170 186l-170 -186h-207zM330 330q0 -57 38.5 -90t114.5 -33q62 0 98.5 9.5t69.5 41.5q39 36 39 135v58h-211q-72 0 -110.5 -32t-38.5 -89z" />
<glyph unicode="&#xe3;" horiz-adv-x="1093" d="M74 324q0 135 93 222t271 87h252v53q0 88 -46.5 128t-151.5 40q-75 0 -118.5 -19.5t-86.5 -68.5l-170 166q76 84 162 115.5t223 31.5q225 0 339.5 -95t114.5 -282v-702h-260v92q-55 -55 -113.5 -78.5t-148.5 -23.5q-178 0 -272 94q-88 91 -88 240zM154 1397 q66 66 117.5 92.5t111.5 26.5q46 0 81 -10t79 -36q59 -38 112 -38q31 0 57 11.5t62 47.5l119 -117q-67 -67 -118.5 -93t-112.5 -26q-80 0 -158 45q-63 37 -115 37q-32 0 -57.5 -10.5t-61.5 -46.5zM330 330q0 -57 38.5 -90t114.5 -33q62 0 98.5 9.5t69.5 41.5q39 36 39 135 v58h-211q-72 0 -110.5 -32t-38.5 -89z" />
<glyph unicode="&#xe4;" horiz-adv-x="1093" d="M74 324q0 135 93 222t271 87h252v53q0 88 -46.5 128t-151.5 40q-75 0 -118.5 -19.5t-86.5 -68.5l-170 166q76 84 162 115.5t223 31.5q225 0 339.5 -95t114.5 -282v-702h-260v92q-55 -55 -113.5 -78.5t-148.5 -23.5q-178 0 -272 94q-88 91 -88 240zM197 1241v256h227v-256 h-227zM330 330q0 -57 38.5 -90t114.5 -33q62 0 98.5 9.5t69.5 41.5q39 36 39 135v58h-211q-72 0 -110.5 -32t-38.5 -89zM649 1241v256h228v-256h-228z" />
<glyph unicode="&#xe5;" horiz-adv-x="1093" d="M74 324q0 135 93 222t271 87h252v53q0 88 -46.5 128t-151.5 40q-75 0 -118.5 -19.5t-86.5 -68.5l-170 166q76 84 162 115.5t223 31.5q225 0 339.5 -95t114.5 -282v-702h-260v92q-55 -55 -113.5 -78.5t-148.5 -23.5q-178 0 -272 94q-88 91 -88 240zM266 1464 q0 110 79.5 189.5t189.5 79.5q111 0 189.5 -78.5t78.5 -190.5q0 -110 -79 -189t-189 -79t-189.5 79t-79.5 189zM330 330q0 -57 38.5 -90t114.5 -33q62 0 98.5 9.5t69.5 41.5q39 36 39 135v58h-211q-72 0 -110.5 -32t-38.5 -89zM416 1464q0 -50 35 -85.5t84 -35.5t83.5 35.5 t34.5 85.5t-34.5 84.5t-83.5 34.5t-84 -34.5t-35 -84.5z" />
<glyph unicode="&#xe6;" horiz-adv-x="1716" d="M74 324q0 135 93 222t271 87h252v53q0 88 -46.5 128t-151.5 40q-75 0 -118.5 -19.5t-86.5 -68.5l-170 166q76 84 162 115.5t223 31.5q243 0 350 -116q113 116 303 116q145 0 251.5 -66.5t160 -181t53.5 -262.5v-118h-668q0 -106 62 -172t172 -66q84 0 135.5 23t105.5 77 l162 -157q-88 -88 -178 -128t-227 -40q-247 0 -375 149q-82 -89 -166.5 -119t-208.5 -30q-176 0 -272 96q-88 91 -88 240zM330 330q0 -57 38.5 -90t114.5 -33q62 0 98.5 9.5t69.5 41.5q39 36 39 135v58h-211q-72 0 -110.5 -32t-38.5 -89zM952 633h406q-3 60 -25 115 q-51 110 -178 110t-178 -110q-22 -55 -25 -115z" />
<glyph unicode="&#xe7;" horiz-adv-x="983" d="M96 535q0 125 29.5 222t76.5 156.5t111.5 98t127.5 53t132 14.5q216 0 353 -143l-181 -180q-42 45 -81 64.5t-91 19.5q-93 0 -151 -70q-60 -75 -60 -235q0 -163 60 -238q58 -70 151 -70q52 0 91 19.5t81 64.5l181 -178q-139 -145 -353 -145q-68 0 -131.5 15t-128 54 t-111.5 98.5t-76.5 157t-29.5 222.5zM328 -422l141 299h197l-91 -299h-247z" />
<glyph unicode="&#xe8;" horiz-adv-x="1122" d="M96 535q0 257 127 400.5t338 143.5q145 0 251.5 -66.5t160 -181t53.5 -262.5v-118h-668q0 -106 62 -172t172 -66q84 0 136 23t106 77l161 -157q-88 -88 -178 -128t-227 -40q-80 0 -148.5 15t-134 53.5t-111 99t-73 157.5t-27.5 222zM268 1585h281l131 -348h-178zM358 633 h406q-3 60 -25 115q-51 110 -178 110t-178 -110q-22 -55 -25 -115z" />
<glyph unicode="&#xe9;" horiz-adv-x="1122" d="M96 535q0 257 127 400.5t338 143.5q145 0 251.5 -66.5t160 -181t53.5 -262.5v-118h-668q0 -106 62 -172t172 -66q84 0 136 23t106 77l161 -157q-88 -88 -178 -128t-227 -40q-80 0 -148.5 15t-134 53.5t-111 99t-73 157.5t-27.5 222zM358 633h406q-3 60 -25 115 q-51 110 -178 110t-178 -110q-22 -55 -25 -115zM455 1237l131 348h280l-233 -348h-178z" />
<glyph unicode="&#xea;" horiz-adv-x="1122" d="M96 535q0 257 127 400.5t338 143.5q145 0 251.5 -66.5t160 -181t53.5 -262.5v-118h-668q0 -106 62 -172t172 -66q84 0 136 23t106 77l161 -157q-88 -88 -178 -128t-227 -40q-80 0 -148.5 15t-134 53.5t-111 99t-73 157.5t-27.5 222zM190 1237l271 346h213l270 -346h-207 l-170 186l-170 -186h-207zM358 633h406q-3 60 -25 115q-51 110 -178 110t-178 -110q-22 -55 -25 -115z" />
<glyph unicode="&#xeb;" horiz-adv-x="1122" d="M96 535q0 257 127 400.5t338 143.5q145 0 251.5 -66.5t160 -181t53.5 -262.5v-118h-668q0 -106 62 -172t172 -66q84 0 136 23t106 77l161 -157q-88 -88 -178 -128t-227 -40q-80 0 -148.5 15t-134 53.5t-111 99t-73 157.5t-27.5 222zM227 1241v256h228v-256h-228zM358 633 h406q-3 60 -25 115q-51 110 -178 110t-178 -110q-22 -55 -25 -115zM680 1241v256h227v-256h-227z" />
<glyph unicode="&#xec;" horiz-adv-x="563" d="M2 1585h281l131 -348h-178zM150 0v1067h266v-1067h-266z" />
<glyph unicode="&#xed;" horiz-adv-x="563" d="M147 1237l132 348h280l-233 -348h-179zM150 0v1067h266v-1067h-266z" />
<glyph unicode="&#xee;" horiz-adv-x="563" d="M-96 1237l270 346h213l270 -346h-206l-170 186l-170 -186h-207zM150 0v1067h266v-1067h-266z" />
<glyph unicode="&#xef;" horiz-adv-x="563" d="M-57 1241v256h227v-256h-227zM150 0v1067h266v-1067h-266zM395 1241v256h228v-256h-228z" />
<glyph unicode="&#xf0;" d="M115 520q0 147 25 240.5t93 163.5q66 69 183 100q88 22 155 14l-69 127h-234v187h140l-64 123h285l63 -123h189v-187h-95l82 -157q76 -149 101.5 -244.5t25.5 -243.5q0 -149 -25 -241.5t-93 -163.5q-123 -127 -322 -127t-322 127q-68 71 -93 163.5t-25 241.5zM381 520 q0 -93 11 -152.5t46 -95.5q45 -45 117 -45q74 0 119 45q35 36 45 94.5t10 153.5t-10 152.5t-45 93.5q-45 45 -119 45q-72 0 -117 -45q-35 -36 -46 -95t-11 -151z" />
<glyph unicode="&#xf1;" horiz-adv-x="1173" d="M150 0v1067h260v-98q104 110 266 110q158 0 252 -94q61 -61 84.5 -134t23.5 -169v-682h-266v645q0 100 -52 147.5t-124 47.5q-73 0 -125.5 -47.5t-52.5 -147.5v-645h-266zM213 1397q66 66 117.5 92.5t111.5 26.5q46 0 81 -10t79 -36q59 -38 113 -38q31 0 57 11.5t62 47.5 l118 -117q-67 -67 -118.5 -93t-112.5 -26q-80 0 -158 45q-63 37 -114 37q-32 0 -57.5 -10.5t-61.5 -46.5z" />
<glyph unicode="&#xf2;" d="M104 535q0 152 26 246.5t95 166.5q124 131 330 131q208 0 332 -131q69 -72 95 -166.5t26 -246.5q0 -154 -26 -249t-95 -167q-124 -131 -332 -131q-206 0 -330 131q-69 72 -95 167t-26 249zM250 1585h280l132 -348h-179zM371 535q0 -99 11.5 -161t49.5 -100 q47 -47 123 -47q78 0 125 47q38 38 49.5 100t11.5 161q0 98 -11.5 159t-49.5 99q-47 47 -125 47q-76 0 -123 -47q-38 -38 -49.5 -99t-11.5 -159z" />
<glyph unicode="&#xf3;" d="M104 535q0 152 26 246.5t95 166.5q124 131 330 131q208 0 332 -131q69 -72 95 -166.5t26 -246.5q0 -154 -26 -249t-95 -167q-124 -131 -332 -131q-206 0 -330 131q-69 72 -95 167t-26 249zM371 535q0 -99 11.5 -161t49.5 -100q47 -47 123 -47q78 0 125 47q38 38 49.5 100 t11.5 161q0 98 -11.5 159t-49.5 99q-47 47 -125 47q-76 0 -123 -47q-38 -38 -49.5 -99t-11.5 -159zM444 1237l131 348h281l-233 -348h-179z" />
<glyph unicode="&#xf4;" d="M104 535q0 152 26 246.5t95 166.5q124 131 330 131q208 0 332 -131q69 -72 95 -166.5t26 -246.5q0 -154 -26 -249t-95 -167q-124 -131 -332 -131q-206 0 -330 131q-69 72 -95 167t-26 249zM180 1237l271 346h213l270 -346h-207l-170 186l-170 -186h-207zM371 535 q0 -99 11.5 -161t49.5 -100q47 -47 123 -47q78 0 125 47q38 38 49.5 100t11.5 161q0 98 -11.5 159t-49.5 99q-47 47 -125 47q-76 0 -123 -47q-38 -38 -49.5 -99t-11.5 -159z" />
<glyph unicode="&#xf5;" d="M104 535q0 152 26 246.5t95 166.5q124 131 330 131q208 0 332 -131q69 -72 95 -166.5t26 -246.5q0 -154 -26 -249t-95 -167q-124 -131 -332 -131q-206 0 -330 131q-69 72 -95 167t-26 249zM176 1397q66 66 118 92.5t112 26.5q46 0 80.5 -10t78.5 -36q59 -38 113 -38 q31 0 57 11.5t62 47.5l118 -117q-67 -67 -118.5 -93t-112.5 -26q-80 0 -158 45q-63 37 -114 37q-32 0 -57.5 -10.5t-61.5 -46.5zM371 535q0 -99 11.5 -161t49.5 -100q47 -47 123 -47q78 0 125 47q38 38 49.5 100t11.5 161q0 98 -11.5 159t-49.5 99q-47 47 -125 47 q-76 0 -123 -47q-38 -38 -49.5 -99t-11.5 -159z" />
<glyph unicode="&#xf6;" d="M104 535q0 152 26 246.5t95 166.5q124 131 330 131q208 0 332 -131q69 -72 95 -166.5t26 -246.5q0 -154 -26 -249t-95 -167q-124 -131 -332 -131q-206 0 -330 131q-69 72 -95 167t-26 249zM217 1241v256h227v-256h-227zM371 535q0 -99 11.5 -161t49.5 -100 q47 -47 123 -47q78 0 125 47q38 38 49.5 100t11.5 161q0 98 -11.5 159t-49.5 99q-47 47 -125 47q-76 0 -123 -47q-38 -38 -49.5 -99t-11.5 -159zM670 1241v256h227v-256h-227z" />
<glyph unicode="&#xf7;" d="M94 461v248h924v-248h-924zM424 37v266h266v-266h-266zM424 866v267h266v-267h-266z" />
<glyph unicode="&#xf8;" d="M104 535q0 152 26 246.5t95 166.5q124 131 330 131q127 0 215 -45l72 123h164l-123 -207l4 -2q25 -12 44.5 -31.5t32.5 -39t21.5 -52.5t13 -56.5t6.5 -68t2.5 -70t0.5 -78.5v-17q0 -154 -26 -249t-95 -167q-124 -131 -332 -131q-121 0 -213 47l-74 -125h-162l121 207 l-2 2q-70 70 -95.5 165.5t-25.5 250.5zM371 535q0 -120 14 -177l270 455q-46 27 -100 27q-76 0 -123 -47q-38 -38 -49.5 -99t-11.5 -159zM457 254q46 -27 98 -27q78 0 125 47q38 38 49.5 100t11.5 161q0 109 -16 174z" />
<glyph unicode="&#xf9;" horiz-adv-x="1173" d="M137 385v682h266v-645q0 -100 52.5 -147.5t124.5 -47.5q73 0 125.5 47.5t52.5 147.5v645h266v-1067h-260v98q-104 -110 -266 -110q-158 0 -252 94q-61 61 -85 134.5t-24 168.5zM281 1585h280l131 -348h-178z" />
<glyph unicode="&#xfa;" horiz-adv-x="1173" d="M137 385v682h266v-645q0 -100 52.5 -147.5t124.5 -47.5q73 0 125.5 47.5t52.5 147.5v645h266v-1067h-260v98q-104 -110 -266 -110q-158 0 -252 94q-61 61 -85 134.5t-24 168.5zM467 1237l131 348h281l-234 -348h-178z" />
<glyph unicode="&#xfb;" horiz-adv-x="1173" d="M137 385v682h266v-645q0 -100 52.5 -147.5t124.5 -47.5q73 0 125.5 47.5t52.5 147.5v645h266v-1067h-260v98q-104 -110 -266 -110q-158 0 -252 94q-61 61 -85 134.5t-24 168.5zM203 1237l270 346h213l270 -346h-206l-170 186l-170 -186h-207z" />
<glyph unicode="&#xfc;" horiz-adv-x="1173" d="M137 385v682h266v-645q0 -100 52.5 -147.5t124.5 -47.5q73 0 125.5 47.5t52.5 147.5v645h266v-1067h-260v98q-104 -110 -266 -110q-158 0 -252 94q-61 61 -85 134.5t-24 168.5zM242 1241v256h227v-256h-227zM694 1241v256h228v-256h-228z" />
<glyph unicode="&#xfd;" horiz-adv-x="1011" d="M8 1067h281l221 -659l213 659h281l-457 -1239q-36 -93 -80 -137q-82 -82 -229 -82h-105v239h62q58 0 85.5 19.5t47.5 77.5l45 131zM387 1237l131 348h281l-234 -348h-178z" />
<glyph unicode="&#xfe;" horiz-adv-x="1150" d="M150 -391v1849h266v-485q51 57 112.5 81.5t145.5 24.5q77 0 146 -25.5t114 -70.5q38 -38 61.5 -89t32.5 -118.5t11.5 -114.5t2.5 -126t-2.5 -126.5t-11.5 -115.5t-32.5 -119.5t-61.5 -89.5q-45 -45 -114 -70.5t-146 -25.5q-84 0 -145.5 24.5t-112.5 81.5v-485h-266z M416 535q0 -58 3.5 -99.5t14 -83.5t30 -67.5t52.5 -41.5t80 -16t80 16t52.5 41.5t30 67.5t14 83.5t3.5 99.5t-3.5 99t-14 82.5t-30 67t-52.5 41t-80 15.5t-80 -15.5t-52.5 -41t-30 -67t-14 -82.5t-3.5 -99z" />
<glyph unicode="&#xff;" horiz-adv-x="1011" d="M8 1067h281l221 -659l213 659h281l-457 -1239q-36 -93 -80 -137q-82 -82 -229 -82h-105v239h62q58 0 85.5 19.5t47.5 77.5l45 131zM170 1241v256h227v-256h-227zM623 1241v256h227v-256h-227z" />
<glyph unicode="&#x152;" horiz-adv-x="1978" d="M121 729q0 75 0.5 106t2.5 93.5t7.5 93.5t15.5 80t25 80.5t38.5 68t53.5 66.5q78 78 171 115.5t216 37.5q166 0 262 -102v90h953v-252h-670q0 -30 1 -173t1 -173h569v-250h-569q0 -30 -1 -179t-1 -179h672v-252h-955v90q-49 -52 -120 -77t-142 -25q-123 0 -216 37.5 t-171 115.5q-30 30 -53.5 66.5t-38.5 68t-25 80.5t-15.5 80t-7.5 93.5t-2.5 93.5t-0.5 106zM406 729q0 -208 13.5 -285.5t55.5 -124.5q67 -77 184 -77q116 0 183 77q42 47 56.5 125.5t14.5 284.5t-14.5 284.5t-56.5 125.5q-68 78 -183 78q-116 0 -184 -78 q-42 -47 -55.5 -124.5t-13.5 -285.5z" />
<glyph unicode="&#x153;" horiz-adv-x="1767" d="M104 535q0 152 26 246.5t95 166.5q124 131 330 131q109 0 193.5 -38t136.5 -103q116 141 321 141q145 0 251.5 -66.5t160 -181t53.5 -262.5v-118h-667q0 -106 61.5 -172t171.5 -66q84 0 135 23t105 77l163 -157q-88 -88 -178 -128t-227 -40q-235 0 -356 135 q-52 -63 -134.5 -99t-189.5 -36q-206 0 -330 131q-69 72 -95 167t-26 249zM371 535q0 -99 11.5 -161t49.5 -100q47 -47 123 -47q78 0 125 47q38 38 49.5 100t11.5 161q0 98 -11.5 159t-49.5 99q-47 47 -125 47q-76 0 -123 -47q-38 -38 -49.5 -99t-11.5 -159zM1004 633h403 q-3 66 -23 115q-51 110 -178 110q-65 0 -111 -30t-69 -80q-19 -47 -22 -115z" />
<glyph unicode="&#x178;" horiz-adv-x="1171" d="M6 1458h309l273 -588l268 588h309l-438 -860v-598h-283v598zM246 1604v256h227v-256h-227zM698 1604v256h228v-256h-228z" />
<glyph unicode="&#x2c6;" horiz-adv-x="1024" d="M135 1237l271 346h212l271 -346h-207l-170 186l-170 -186h-207z" />
<glyph unicode="&#x2da;" horiz-adv-x="1024" d="M244 1464q0 110 79 189.5t189 79.5q111 0 189.5 -78.5t78.5 -190.5q0 -110 -79 -189t-189 -79t-189 79t-79 189zM393 1464q0 -50 35 -85.5t84 -35.5t84 35.5t35 85.5t-34.5 84.5t-84.5 34.5t-84.5 -34.5t-34.5 -84.5z" />
<glyph unicode="&#x2dc;" horiz-adv-x="1024" d="M176 1397q66 66 118 92.5t112 26.5q46 0 80.5 -10t78.5 -36q59 -38 113 -38q31 0 57 11.5t62 47.5l118 -117q-67 -67 -118.5 -93t-112.5 -26q-80 0 -158 45q-63 37 -114 37q-32 0 -57.5 -10.5t-61.5 -46.5z" />
<glyph unicode="&#x401;" horiz-adv-x="1239" d="M170 0v1458h960v-254h-675v-342h575v-254h-575v-354h675v-254h-960zM295 1604v256h227v-256h-227zM748 1604v256h227v-256h-227z" />
<glyph unicode="&#x402;" horiz-adv-x="1531" d="M59 1204v254h1047v-254h-444v-286h266q212 0 342.5 -122.5t130.5 -322.5v-27q0 -200 -131 -323t-342 -123h-86v244h63q95 0 153 55.5t58 146.5v27q0 89 -58 144t-153 55h-243v-672h-283v1204h-320z" />
<glyph unicode="&#x403;" horiz-adv-x="1148" d="M176 0v1458h918v-254h-633v-1204h-285zM489 1599l132 349h280l-233 -349h-179z" />
<glyph unicode="&#x404;" horiz-adv-x="1267" d="M121 709v20q0 221 12 304q26 172 131 278q159 159 393 159q210 0 354.5 -117.5t180.5 -336.5h-283q-25 94 -87.5 150.5t-162.5 56.5q-116 0 -186 -80q-37 -40 -52.5 -99t-19.5 -188h453v-248h-455q4 -132 20 -192t54 -101q69 -79 186 -79q101 0 164 56.5t86 149.5h283 q-36 -218 -181 -336t-354 -118q-234 0 -393 159q-35 35 -60 72.5t-40.5 85t-24.5 84.5t-13 100.5t-4.5 102t-0.5 117.5z" />
<glyph unicode="&#x405;" horiz-adv-x="1210" d="M39 180l184 185q123 -123 352 -123q126 0 192.5 46t66.5 134q0 80 -46 123q-41 38 -129 51l-176 25q-184 27 -282 120q-105 105 -105 287q0 198 137.5 320t370.5 122q153 0 265.5 -40t205.5 -130l-180 -178q-62 60 -136.5 80.5t-162.5 20.5q-109 0 -167 -52.5t-58 -132.5 q0 -64 43 -104q49 -45 135 -57l172 -25q184 -25 278 -113q113 -107 113 -309q0 -206 -152.5 -324t-388.5 -118q-173 0 -301 43.5t-231 148.5z" />
<glyph unicode="&#x406;" horiz-adv-x="624" d="M170 0v1458h285v-1458h-285z" />
<glyph unicode="&#x407;" horiz-adv-x="624" d="M-29 1604v256h228v-256h-228zM170 0v1458h285v-1458h-285zM424 1604v256h227v-256h-227z" />
<glyph unicode="&#x408;" horiz-adv-x="1046" d="M6 137l189 187q41 -41 81.5 -61.5t104.5 -20.5q107 0 168 63.5t61 186.5v966h285v-979q0 -117 -42 -212t-114 -155t-163.5 -92t-194.5 -32q-120 0 -207 34t-168 115z" />
<glyph unicode="&#x409;" horiz-adv-x="2064" d="M35 0v254h41q47 0 82 12.5t68 47.5t54 94t33.5 157t12.5 232v661h907v-549h289q212 0 342.5 -126.5t130.5 -327.5t-131 -328t-342 -127h-574v1204h-348v-424q0 -183 -18.5 -316.5t-53.5 -222.5t-91.5 -142.5t-126 -76t-163.5 -22.5h-112zM1233 254h266q96 0 153.5 55 t57.5 146q0 90 -57.5 144t-153.5 54h-266v-399z" />
<glyph unicode="&#x40a;" horiz-adv-x="2064" d="M170 0v1458h285v-549h493v549h285v-549h289q212 0 342.5 -126.5t130.5 -327.5t-131 -328t-342 -127h-574v655h-493v-655h-285zM1233 254h266q96 0 153.5 55t57.5 146q0 90 -57.5 144t-153.5 54h-266v-399z" />
<glyph unicode="&#x40b;" horiz-adv-x="1531" d="M59 1204v254h1047v-254h-444v-286h266q212 0 342.5 -122.5t130.5 -322.5v-473h-285v473q0 89 -58 144t-153 55h-243v-672h-283v1204h-320z" />
<glyph unicode="&#x40c;" horiz-adv-x="1310" d="M174 0v1458h285v-692l471 692h340l-490 -684l539 -774h-348l-512 762v-762h-285zM586 1599l131 349h280l-233 -349h-178z" />
<glyph unicode="&#x40e;" horiz-adv-x="1189" d="M8 1458h297l305 -702l277 702h295l-516 -1212q-46 -110 -126.5 -178t-199.5 -68h-174v254h115q109 0 151 92l43 100zM279 1829h200q8 -127 131 -127t131 127h201q-3 -80 -32 -138.5t-77 -91.5t-103.5 -48t-119.5 -15t-119.5 15t-103 48t-76.5 91.5t-32 138.5z" />
<glyph unicode="&#x40f;" horiz-adv-x="1404" d="M170 0v1458h285v-1204h493v1204h285v-1458h-393v-324h-275v324h-395z" />
<glyph unicode="&#x410;" horiz-adv-x="1306" d="M10 0l531 1458h223l532 -1458h-297l-86 258h-518l-88 -258h-297zM475 498h363l-179 530z" />
<glyph unicode="&#x411;" horiz-adv-x="1339" d="M170 0v1458h965v-254h-680v-295h299q217 0 345 -126t128 -328q0 -203 -127.5 -329t-345.5 -126h-584zM455 254h284q94 0 148.5 54.5t54.5 146.5q0 90 -54.5 145t-148.5 55h-284v-401z" />
<glyph unicode="&#x412;" horiz-adv-x="1347" d="M170 0v1458h586q206 0 328 -108.5t122 -292.5q0 -208 -180 -309q72 -39 111 -78q90 -97 90 -252q0 -192 -121 -305t-326 -113h-610zM455 254h297q88 0 139 48.5t51 131.5t-51 130.5t-139 47.5h-297v-358zM455 868h278q88 0 138.5 45t50.5 123t-50.5 123t-138.5 45h-278 v-336z" />
<glyph unicode="&#x413;" horiz-adv-x="1148" d="M176 0v1458h918v-254h-633v-1204h-285z" />
<glyph unicode="&#x414;" horiz-adv-x="1443" d="M29 254h137q88 135 131 351.5t43 479.5v373h879v-1204h167v-578h-274v324h-809v-324h-274v578zM483 254h451v950h-322v-211q0 -233 -29 -414t-100 -325z" />
<glyph unicode="&#x415;" horiz-adv-x="1239" d="M170 0v1458h960v-254h-675v-342h575v-254h-575v-354h675v-254h-960z" />
<glyph unicode="&#x416;" horiz-adv-x="1923" d="M-12 0l526 774l-477 684h336l446 -692v692h285v-692l446 692h336l-477 -684l526 -774h-344l-487 762v-762h-285v762l-487 -762h-344z" />
<glyph unicode="&#x417;" horiz-adv-x="1241" d="M70 442h282q25 -94 87 -150t163 -56q107 0 170.5 54t63.5 142q0 94 -56.5 145.5t-165.5 51.5h-188v233h190q94 0 146.5 48.5t52.5 136.5q0 84 -57 132t-154 48q-100 0 -162.5 -58t-85.5 -153h-284q37 219 181.5 336.5t352.5 117.5q217 0 355.5 -110.5t138.5 -292.5 q0 -103 -51 -184.5t-140 -128.5q99 -44 155 -129.5t56 -202.5q0 -196 -145.5 -315t-374.5 -119q-205 0 -349 117.5t-181 336.5z" />
<glyph unicode="&#x418;" horiz-adv-x="1445" d="M170 0v1458h285v-934l567 934h254v-1458h-285v936l-567 -936h-254z" />
<glyph unicode="&#x419;" horiz-adv-x="1445" d="M170 0v1458h285v-934l567 934h254v-1458h-285v936l-567 -936h-254zM393 1829h201q8 -127 131 -127t131 127h201q-3 -80 -32 -138.5t-77 -91.5t-103.5 -48t-119.5 -15t-119.5 15t-103.5 48t-77 91.5t-32 138.5z" />
<glyph unicode="&#x41a;" horiz-adv-x="1310" d="M174 0v1458h285v-692l471 692h340l-490 -684l539 -774h-348l-512 762v-762h-285z" />
<glyph unicode="&#x41b;" horiz-adv-x="1404" d="M35 0v254h41q47 0 82 12.5t68 47.5t54 94t33.5 157t12.5 232v661h907v-1458h-285v1204h-348v-424q0 -183 -18.5 -316.5t-53.5 -222.5t-91.5 -142.5t-126 -76t-163.5 -22.5h-112z" />
<glyph unicode="&#x41c;" horiz-adv-x="1660" d="M170 0v1458h281l380 -788l379 788h281v-1458h-285v850l-278 -553h-193l-280 553v-850h-285z" />
<glyph unicode="&#x41d;" horiz-adv-x="1402" d="M170 0v1458h285v-596h493v596h285v-1458h-285v610h-493v-610h-285z" />
<glyph unicode="&#x41e;" horiz-adv-x="1318" d="M121 668v120q0 220 29.5 328.5t113.5 194.5q156 159 395 159q238 0 394 -159q77 -78 111 -190.5t34 -289.5v-155q0 -61 -1 -96.5t-5 -91t-13 -94.5t-24.5 -85.5t-41 -86t-60.5 -75.5q-153 -159 -394 -159q-239 0 -395 159q-34 35 -59.5 76.5t-40.5 89t-24.5 88.5 t-13 95.5t-4.5 87t-1 84.5zM406 676q0 -98 2.5 -150t18.5 -113.5t48 -93.5q77 -77 184 -77q115 0 183 77q44 51 57.5 133t13.5 304q0 181 -14 258.5t-57 124.5q-69 78 -183 78q-115 0 -184 -78q-45 -49 -57 -137t-12 -252v-74z" />
<glyph unicode="&#x41f;" horiz-adv-x="1402" d="M170 0v1458h1063v-1458h-285v1204h-493v-1204h-285z" />
<glyph unicode="&#x420;" horiz-adv-x="1286" d="M170 0v1458h565q211 0 346.5 -127.5t135.5 -326.5q0 -200 -135 -327.5t-347 -127.5h-280v-549h-285zM455 805h266q95 0 153 54t58 145t-58 145.5t-153 54.5h-266v-399z" />
<glyph unicode="&#x421;" horiz-adv-x="1269" d="M121 709v20q0 221 12 304q26 172 131 278q159 159 393 159q210 0 355 -118.5t182 -341.5h-289q-23 95 -83.5 151t-162.5 56q-116 0 -182 -76q-42 -47 -56.5 -126.5t-14.5 -285.5t14.5 -285.5t56.5 -126.5q65 -75 182 -75q102 0 162.5 56t83.5 151h289 q-37 -223 -182.5 -342t-354.5 -119q-234 0 -393 159q-35 35 -60 72.5t-40.5 85t-24.5 84.5t-13 100.5t-4.5 102t-0.5 117.5z" />
<glyph unicode="&#x422;" horiz-adv-x="1169" d="M61 1204v254h1047v-254h-381v-1204h-285v1204h-381z" />
<glyph unicode="&#x423;" horiz-adv-x="1189" d="M8 1458h297l305 -702l277 702h295l-516 -1212q-46 -110 -126.5 -178t-199.5 -68h-174v254h115q109 0 151 92l43 100z" />
<glyph unicode="&#x424;" horiz-adv-x="1667" d="M92 784q0 282 149.5 430.5t450.5 167.5v146h283v-146q302 -19 451 -167t149 -431q0 -292 -143.5 -447.5t-456.5 -172.5v-174h-283v174q-312 17 -456 172.5t-144 447.5zM377 772q0 -178 75 -269.5t244 -101.5v738q-173 -7 -246 -95t-73 -272zM973 401q169 10 244 101.5 t75 269.5q0 184 -73 272t-246 95v-738z" />
<glyph unicode="&#x425;" horiz-adv-x="1234" d="M10 0l453 748l-424 710h323l254 -471l256 471h322l-424 -710l455 -748h-326l-283 508l-280 -508h-326z" />
<glyph unicode="&#x426;" horiz-adv-x="1458" d="M170 0v1458h285v-1204h493v1204h285v-1204h170v-578h-275v324h-958z" />
<glyph unicode="&#x427;" horiz-adv-x="1329" d="M131 862v596h285v-522q0 -90 49.5 -132t132.5 -42q124 0 276 31v665h283v-1458h-283v547q-3 0 -50 -8t-71 -11.5t-70.5 -9t-90.5 -8t-88 -2.5q-72 0 -137 22t-118.5 64t-85.5 111.5t-32 156.5z" />
<glyph unicode="&#x428;" horiz-adv-x="2023" d="M170 0v1458h285v-1204h415v1204h285v-1204h414v1204h284v-1458h-1683z" />
<glyph unicode="&#x429;" horiz-adv-x="2076" d="M170 0v1458h285v-1204h415v1204h285v-1204h414v1204h284v-1204h168v-578h-274v324h-1577z" />
<glyph unicode="&#x42a;" horiz-adv-x="1488" d="M61 1204v254h596v-549h289q211 0 342 -126.5t131 -327.5q0 -200 -131.5 -327.5t-341.5 -127.5h-573v1204h-312zM657 254h267q95 0 153 55t58 146q0 89 -58 144.5t-153 55.5h-267v-401z" />
<glyph unicode="&#x42b;" horiz-adv-x="1828" d="M170 0v1458h285v-549h288q212 0 343 -126.5t131 -327.5t-131.5 -328t-342.5 -127h-573zM455 254h266q96 0 153.5 55t57.5 146q0 90 -57.5 145t-153.5 55h-266v-401zM1374 0v1458h285v-1458h-285z" />
<glyph unicode="&#x42c;" horiz-adv-x="1286" d="M170 0v1458h285v-549h288q212 0 343 -126.5t131 -327.5t-131.5 -328t-342.5 -127h-573zM455 254h266q96 0 153.5 55t57.5 146q0 90 -57.5 145t-153.5 55h-266v-401z" />
<glyph unicode="&#x42d;" horiz-adv-x="1267" d="M76 442h282q23 -93 86 -149.5t164 -56.5q118 0 187 79q38 41 53.5 101t19.5 192h-454v248h452q-4 129 -19 188t-52 99q-70 80 -187 80q-100 0 -162.5 -56.5t-87.5 -150.5h-282q36 219 180 336.5t354 117.5q235 0 394 -159q35 -35 60 -72.5t40.5 -85t24.5 -84.5t13 -100.5 t4.5 -102t0.5 -117.5v-20q0 -221 -12 -304q-26 -172 -131 -278q-159 -159 -394 -159q-209 0 -353.5 117.5t-180.5 336.5z" />
<glyph unicode="&#x42e;" horiz-adv-x="1871" d="M170 0v1458h285v-594h221q6 169 35.5 267.5t107.5 179.5q150 159 393 159q240 0 396 -159q79 -80 111 -188t32 -265v-149q0 -92 -1.5 -140.5t-8.5 -118.5t-21.5 -114.5t-42.5 -95t-69 -93.5q-153 -159 -394 -159q-242 0 -395 159q-84 85 -113 191.5t-32 271.5h-219v-610 h-285zM958 682q0 -160 15.5 -237t56.5 -123q71 -80 182 -80q114 0 185 80q43 48 56 128t13 246v86q0 148 -14.5 230t-54.5 127q-69 78 -185 78t-182 -78q-41 -47 -56.5 -134t-15.5 -233v-90z" />
<glyph unicode="&#x42f;" horiz-adv-x="1331" d="M66 0l301 606q-117 53 -183.5 157.5t-66.5 240.5q0 207 133 330.5t346 123.5h565v-1458h-284v549h-234l-240 -549h-337zM399 1008q0 -90 58.5 -148.5t152.5 -58.5h267v407h-267q-95 0 -153 -54.5t-58 -145.5z" />
<glyph unicode="&#x430;" horiz-adv-x="1093" d="M74 322q0 145 97.5 228t266.5 83h252v53q0 89 -48 128.5t-155 39.5q-71 0 -112 -18t-88 -70l-170 166q46 46 74.5 67.5t68.5 40.5q88 39 236 39q460 0 460 -377v-702h-260v92q-36 -35 -58 -50.5t-52 -27.5q-62 -24 -152 -24q-170 0 -265 87.5t-95 244.5zM330 330 q0 -123 168 -123q103 0 147.5 43t44.5 143v58h-211q-71 0 -110 -31.5t-39 -89.5z" />
<glyph unicode="&#x431;" horiz-adv-x="1122" d="M121 623q0 255 15 391.5t49.5 209t105.5 128.5q93 71 235.5 93.5t405.5 24.5v-229q-31 -2 -105 -5t-120.5 -6t-107.5 -15.5t-103 -34.5q-74 -38 -105 -94t-31 -152q31 53 105.5 88t161.5 35q94 0 154 -21.5t108 -64.5q135 -126 135 -432q0 -158 -30.5 -256.5 t-100.5 -171.5q-117 -123 -315 -123q-123 0 -221 42t-150 124q-86 137 -86 469zM387 535q0 -191 59 -256q44 -52 127 -52t129 54q56 69 56 251q0 177 -53 242q-43 57 -132 57t-133 -55q-53 -69 -53 -241z" />
<glyph unicode="&#x432;" horiz-adv-x="1126" d="M147 0v1067h527q151 0 240.5 -79.5t89.5 -213.5q0 -147 -136 -225q78 -40 115 -98.5t37 -143.5q0 -141 -88.5 -224t-239.5 -83h-545zM412 197h211q62 0 97.5 33.5t35.5 91.5t-35 90t-98 32h-211v-247zM412 643h198q63 0 96 29.5t33 85.5q0 54 -33 83t-96 29h-198v-227z " />
<glyph unicode="&#x433;" horiz-adv-x="888" d="M156 0v1067h706v-236h-440v-831h-266z" />
<glyph unicode="&#x434;" horiz-adv-x="1187" d="M27 236h108q50 88 77.5 201.5t27.5 303.5v326h766v-831h135v-498h-252v262h-610v-262h-252v498zM414 236h325v595h-243v-139q0 -287 -82 -456z" />
<glyph unicode="&#x435;" horiz-adv-x="1122" d="M96 537q0 251 125 396.5t340 145.5q212 0 338.5 -139t126.5 -371v-118h-668q12 -238 244 -238q66 0 123 23q29 12 51.5 27.5t57.5 49.5l161 -157q-59 -56 -95.5 -81.5t-88.5 -47.5q-95 -39 -219 -39q-246 0 -371 138.5t-125 410.5zM358 633h406q-6 109 -58.5 167 t-144.5 58t-145.5 -59t-57.5 -166z" />
<glyph unicode="&#x436;" horiz-adv-x="1558" d="M-12 0l374 569l-350 498h305l328 -506v506h268v-506l330 506h305l-350 -498l373 -569h-311l-347 557v-557h-268v557l-344 -557h-313z" />
<glyph unicode="&#x437;" horiz-adv-x="1015" d="M35 139l153 168q105 -94 271 -94q77 0 131.5 31.5t54.5 89.5q0 115 -153 115h-162v190h157q66 0 105 31.5t39 85.5t-48 81t-132 27q-128 0 -232 -73l-147 163q158 125 432 125q105 0 192 -32t142 -98.5t55 -157.5q0 -75 -39.5 -137t-105.5 -93q74 -31 117.5 -96 t43.5 -150q0 -145 -119 -236t-288 -91q-300 0 -467 151z" />
<glyph unicode="&#x438;" horiz-adv-x="1206" d="M147 0v1067h269v-635l375 635h268v-1067h-268v651l-375 -651h-269z" />
<glyph unicode="&#x439;" horiz-adv-x="1206" d="M147 0v1067h269v-635l375 635h268v-1067h-268v651l-375 -651h-269zM270 1479h201q8 -127 131 -127t131 127h201q-2 -80 -31 -138.5t-77 -91t-104 -48t-120 -15.5t-119.5 15t-103.5 48t-77 91.5t-32 138.5z" />
<glyph unicode="&#x43a;" horiz-adv-x="1091" d="M150 0v1067h268v-506l350 506h311l-377 -498l402 -569h-320l-366 557v-557h-268z" />
<glyph unicode="&#x43b;" horiz-adv-x="1169" d="M29 0v236h32q23 0 38.5 2t36 10.5t34 24t28 45t23 71t14 104t5.5 142.5v432h780v-1067h-266v831h-256v-256q0 -168 -22 -282t-68 -177.5t-106 -89.5t-146 -26h-127z" />
<glyph unicode="&#x43c;" horiz-adv-x="1386" d="M147 0v1067h265l282 -561l281 561h262v-1067h-266v616l-201 -395h-152l-202 395v-616h-269z" />
<glyph unicode="&#x43d;" horiz-adv-x="1173" d="M147 0v1067h269v-403h342v403h268v-1067h-268v428h-342v-428h-269z" />
<glyph unicode="&#x43e;" d="M104 535q0 157 27.5 249.5t93.5 163.5q125 131 330 131q207 0 332 -131q66 -69 93.5 -161.5t27.5 -247.5q0 -163 -27 -256.5t-94 -163.5q-125 -131 -332 -131q-205 0 -330 131q-67 70 -94 163t-27 253zM371 518q0 -154 43.5 -222.5t140.5 -68.5q37 0 66.5 10.5t48.5 26 t33 41.5t21 50t11 58.5t5 60t1 61.5q0 35 -1 60.5t-5 59.5t-11.5 58t-21.5 49.5t-33 41.5t-48 26t-66 10q-38 0 -67.5 -11.5t-48.5 -27.5t-32.5 -45t-20.5 -53t-10.5 -62t-4 -61t-0.5 -62z" />
<glyph unicode="&#x43f;" horiz-adv-x="1173" d="M147 0v1067h879v-1067h-268v831h-342v-831h-269z" />
<glyph unicode="&#x440;" horiz-adv-x="1146" d="M150 -391v1458h258v-100q63 63 119.5 87.5t142.5 24.5q80 0 149 -25t115 -71q68 -68 90 -180q18 -100 18 -273q0 -188 -24 -287t-84 -159q-46 -46 -115 -71t-149 -25q-82 0 -139 24t-115 82v-485h-266zM416 518q0 -157 41.5 -224t138.5 -67q100 0 140 69.5t40 240.5 q0 167 -40 235t-140 68q-37 0 -66.5 -11t-48 -26.5t-32 -44t-19.5 -50.5t-9.5 -60.5t-4 -60t-0.5 -60.5v-9z" />
<glyph unicode="&#x441;" horiz-adv-x="983" d="M96 543q0 252 126.5 394t352.5 142q115 0 199 -37q45 -20 75.5 -41t76.5 -65l-181 -180q-46 47 -83.5 65.5t-88.5 18.5q-211 0 -211 -305q0 -308 211 -308q52 0 88 18t84 66l181 -178q-46 -44 -76.5 -65t-75.5 -41q-85 -39 -199 -39q-229 0 -354 145t-125 410z" />
<glyph unicode="&#x442;" horiz-adv-x="933" d="M23 831v236h888v-236h-307v-831h-268v831h-313z" />
<glyph unicode="&#x443;" horiz-adv-x="1011" d="M8 1067h281l221 -659l213 659h281l-457 -1239q-43 -116 -115.5 -167.5t-193.5 -51.5h-105v239h62q58 0 85.5 20t47.5 77l45 131z" />
<glyph unicode="&#x444;" horiz-adv-x="1486" d="M92 541q0 260 135.5 391t382.5 145v381h267v-381q247 -14 382.5 -145t135.5 -391q0 -262 -137.5 -399.5t-380.5 -151.5v-381h-267v381q-243 14 -380.5 151.5t-137.5 399.5zM360 539q0 -306 254 -312v613q-128 -2 -191 -75t-63 -226zM872 227q254 6 254 312q0 153 -63 226 t-191 75v-613z" />
<glyph unicode="&#x445;" horiz-adv-x="1079" d="M25 0l368 545l-354 522h319l181 -305l182 305h319l-354 -522l369 -545h-320l-196 319l-195 -319h-319z" />
<glyph unicode="&#x446;" horiz-adv-x="1216" d="M147 0v1067h269v-831h342v831h268v-831h143v-498h-254v262h-768z" />
<glyph unicode="&#x447;" horiz-adv-x="1122" d="M119 637v430h266v-356q0 -129 131 -129q52 0 193 18v467h266v-1067h-266v375q-169 -29 -291 -29q-131 0 -215 78t-84 213z" />
<glyph unicode="&#x448;" horiz-adv-x="1683" d="M147 0v1067h269v-831h293v831h266v-831h293v831h266v-1067h-1387z" />
<glyph unicode="&#x449;" horiz-adv-x="1726" d="M147 0v1067h269v-831h293v831h266v-831h293v831h266v-831h143v-498h-252v262h-1278z" />
<glyph unicode="&#x44a;" horiz-adv-x="1208" d="M25 831v236h518v-385h245q158 0 256.5 -94.5t98.5 -245.5t-98.5 -246.5t-256.5 -95.5h-514v831h-249zM535 209h204q65 0 103.5 36t38.5 97q0 60 -38.5 95.5t-103.5 35.5h-204v-264z" />
<glyph unicode="&#x44b;" horiz-adv-x="1562" d="M147 0v1067h269v-385h241q158 0 257.5 -94.5t99.5 -245.5t-99.5 -246.5t-257.5 -95.5h-510zM408 209h200q65 0 103.5 36t38.5 97q0 60 -38.5 95.5t-103.5 35.5h-200v-264zM1139 0v1067h268v-1067h-268z" />
<glyph unicode="&#x44c;" horiz-adv-x="1083" d="M147 0v1067h269v-385h246q158 0 256 -94.5t98 -245.5t-98.5 -246.5t-255.5 -95.5h-515zM408 209h204q65 0 102.5 36t37.5 97q0 60 -38 95.5t-102 35.5h-204v-264z" />
<glyph unicode="&#x44d;" horiz-adv-x="983" d="M57 131l179 176q48 -48 85 -67t89 -19q96 0 148 61t63 167h-314v182h314q-14 102 -67 158.5t-146 56.5q-50 0 -87.5 -19.5t-84.5 -66.5l-179 176q84 77 162.5 110t188.5 33q227 0 353 -141.5t126 -396.5q0 -266 -124.5 -409.5t-354.5 -143.5q-110 0 -188.5 33t-162.5 110 z" />
<glyph unicode="&#x44e;" horiz-adv-x="1585" d="M147 0v1067h269v-408h166q21 220 159 328q119 92 287 92q217 0 338 -139q62 -69 88.5 -161.5t26.5 -241.5q0 -159 -27.5 -253t-93.5 -165q-125 -131 -332 -131q-170 0 -285 92q-146 116 -161 352h-166v-432h-269zM844 539q0 -177 45 -244q45 -68 139 -68q95 0 141 70 q45 64 45 240q0 169 -47 239q-46 64 -139 64q-92 0 -137 -66q-47 -63 -47 -235z" />
<glyph unicode="&#x44f;" horiz-adv-x="1095" d="M59 0l215 436q-91 34 -144.5 112t-53.5 185q0 147 99 240.5t255 93.5h518v-1067h-266v379h-143l-177 -379h-303zM336 721q0 -59 38 -95t103 -36h209v264h-209q-65 0 -103 -36t-38 -97z" />
<glyph unicode="&#x451;" horiz-adv-x="1122" d="M96 537q0 251 125 396.5t340 145.5q212 0 338.5 -139t126.5 -371v-118h-668q12 -238 244 -238q66 0 123 23q29 12 51.5 27.5t57.5 49.5l161 -157q-59 -56 -95.5 -81.5t-88.5 -47.5q-95 -39 -219 -39q-246 0 -371 138.5t-125 410.5zM227 1241v256h228v-256h-228zM358 633 h406q-6 109 -58.5 167t-144.5 58t-145.5 -59t-57.5 -166zM680 1241v256h227v-256h-227z" />
<glyph unicode="&#x452;" horiz-adv-x="1165" d="M51 1096v204h96v158h269v-158h467v-204h-467v-211q60 58 120 84t142 26q162 0 256 -105t94 -284v-659q0 -73 -17.5 -132.5t-56.5 -109t-109.5 -77t-168.5 -27.5h-123v225h74q65 0 99 41.5t34 97.5v602q0 88 -44.5 138.5t-123.5 50.5q-80 0 -128 -51.5t-48 -137.5v-567 h-269v1096h-96z" />
<glyph unicode="&#x453;" horiz-adv-x="888" d="M156 0v1067h706v-236h-440v-831h-266zM342 1237l131 348h281l-234 -348h-178z" />
<glyph unicode="&#x454;" horiz-adv-x="983" d="M96 541q0 255 126.5 396.5t352.5 141.5q111 0 189 -33t162 -110l-176 -176q-49 47 -86 66.5t-89 19.5q-93 0 -145.5 -56.5t-64.5 -158.5h317v-182h-317q11 -107 62.5 -167.5t147.5 -60.5q52 0 89.5 19t85.5 67l176 -176q-81 -77 -160 -110t-191 -33q-229 0 -354 144 t-125 409z" />
<glyph unicode="&#x455;" horiz-adv-x="1026" d="M45 141l174 174q100 -100 285 -100q78 0 133 27.5t55 83.5q0 87 -112 98l-168 16q-152 14 -232 85.5t-80 213.5q0 106 58.5 185t150.5 117t203 38q275 0 408 -125l-164 -166q-80 72 -248 72q-75 0 -113.5 -29.5t-38.5 -72.5q0 -83 111 -92l168 -17q157 -15 237 -95.5 t80 -217.5q0 -86 -35 -153.5t-97 -109.5t-143 -63.5t-177 -21.5q-148 0 -255 30t-200 123z" />
<glyph unicode="&#x456;" horiz-adv-x="563" d="M145 1249v217h273v-217h-273zM150 0v1067h266v-1067h-266z" />
<glyph unicode="&#x457;" horiz-adv-x="563" d="M-57 1241v256h227v-256h-227zM150 0v1067h266v-1067h-266zM395 1241v256h228v-256h-228z" />
<glyph unicode="&#x458;" horiz-adv-x="563" d="M-47 -174h102q50 0 72.5 24t22.5 72v1145h266v-1161q0 -59 -18.5 -112t-55 -97t-98 -70t-140.5 -26h-151v225zM145 1249v217h273v-217h-273z" />
<glyph unicode="&#x459;" horiz-adv-x="1687" d="M29 0v236h32q23 0 38.5 2t36 10.5t34 24t28 45t23 71t14 104t5.5 142.5v432h780v-385h248q158 0 257 -94.5t99 -245.5t-99 -246.5t-257 -95.5h-514v831h-256v-256q0 -168 -22 -282t-68 -177.5t-106 -89.5t-146 -26h-127zM1014 209h205q65 0 103 36t38 97q0 60 -38 95.5 t-103 35.5h-205v-264z" />
<glyph unicode="&#x45a;" horiz-adv-x="1693" d="M147 0v1067h269v-385h342v385h268v-385h248q158 0 256 -94.5t98 -245.5t-98.5 -246.5t-255.5 -95.5h-516v446h-342v-446h-269zM1018 209h205q66 0 103.5 35.5t37.5 97.5q0 60 -37.5 95.5t-103.5 35.5h-205v-264z" />
<glyph unicode="&#x45b;" horiz-adv-x="1165" d="M51 1075v205h96v178h269v-178h467v-205h-467v-211q60 59 119.5 85t140.5 26q161 0 256.5 -105.5t95.5 -283.5v-586h-268v547q0 88 -45.5 138t-124.5 50q-81 0 -127.5 -50.5t-46.5 -137.5v-547h-269v1075h-96z" />
<glyph unicode="&#x45c;" horiz-adv-x="1091" d="M150 0v1067h268v-506l350 506h311l-377 -498l402 -569h-320l-366 557v-557h-268zM461 1237l131 348h280l-233 -348h-178z" />
<glyph unicode="&#x45e;" horiz-adv-x="1011" d="M8 1067h281l221 -659l213 659h281l-457 -1239q-43 -116 -115.5 -167.5t-193.5 -51.5h-105v239h62q58 0 85.5 20t47.5 77l45 131zM178 1479h201q8 -127 131 -127t131 127h201q-2 -80 -31 -138.5t-77 -91t-104 -48t-120 -15.5t-119.5 15t-103.5 48t-77 91.5t-32 138.5z" />
<glyph unicode="&#x45f;" horiz-adv-x="1173" d="M147 0v1067h269v-831h342v831h268v-1067h-315v-262h-252v262h-312z" />
<glyph unicode="&#x490;" horiz-adv-x="1148" d="M176 0v1458h643v324h275v-578h-633v-1204h-285z" />
<glyph unicode="&#x491;" horiz-adv-x="888" d="M156 0v1067h454v262h252v-498h-440v-831h-266z" />
<glyph unicode="&#x2000;" horiz-adv-x="1039" />
<glyph unicode="&#x2001;" horiz-adv-x="2079" />
<glyph unicode="&#x2002;" horiz-adv-x="1039" />
<glyph unicode="&#x2003;" horiz-adv-x="2079" />
<glyph unicode="&#x2004;" horiz-adv-x="693" />
<glyph unicode="&#x2005;" horiz-adv-x="519" />
<glyph unicode="&#x2006;" horiz-adv-x="346" />
<glyph unicode="&#x2007;" horiz-adv-x="346" />
<glyph unicode="&#x2008;" horiz-adv-x="259" />
<glyph unicode="&#x2009;" horiz-adv-x="415" />
<glyph unicode="&#x200a;" horiz-adv-x="115" />
<glyph unicode="&#x2010;" horiz-adv-x="872" d="M121 461v248h631v-248h-631z" />
<glyph unicode="&#x2011;" horiz-adv-x="872" d="M121 461v248h631v-248h-631z" />
<glyph unicode="&#x2012;" horiz-adv-x="872" d="M121 461v248h631v-248h-631z" />
<glyph unicode="&#x2013;" d="M102 461v248h908v-248h-908z" />
<glyph unicode="&#x2014;" horiz-adv-x="2103" d="M121 463v256h1861v-256h-1861z" />
<glyph unicode="&#x2015;" horiz-adv-x="2103" d="M121 463v256h1861v-256h-1861z" />
<glyph unicode="&#x2018;" horiz-adv-x="559" d="M139 1206v252l279 215v-467h-279z" />
<glyph unicode="&#x2019;" horiz-adv-x="559" d="M139 993v465h279v-254z" />
<glyph unicode="&#x201a;" horiz-adv-x="555" d="M139 -213v467h279v-254z" />
<glyph unicode="&#x201c;" horiz-adv-x="987" d="M139 1206v252l277 215v-467h-277zM569 1206v252l279 215v-467h-279z" />
<glyph unicode="&#x201d;" horiz-adv-x="987" d="M139 993v465h277v-254zM569 993v465h279v-254z" />
<glyph unicode="&#x201e;" horiz-adv-x="993" d="M139 -213v467h277v-254zM569 -213v467h279v-254z" />
<glyph unicode="&#x2020;" horiz-adv-x="1185" d="M117 840v239h342v379h266v-379h344v-239h-344v-840h-266v840h-342z" />
<glyph unicode="&#x2021;" horiz-adv-x="1185" d="M117 -12v239h342v613h-342v239h342v379h266v-379h344v-239h-344v-613h344v-239h-344v-379h-266v379h-342z" />
<glyph unicode="&#x2022;" horiz-adv-x="1009" d="M170 684q0 138 98 236t236 98t236 -98t98 -236t-98 -236t-236 -98t-236 98t-98 236z" />
<glyph unicode="&#x2026;" horiz-adv-x="1732" d="M139 0v289h291v-289h-291zM721 0v289h289v-289h-289zM1305 0v289h288v-289h-288z" />
<glyph unicode="&#x202f;" horiz-adv-x="415" />
<glyph unicode="&#x2030;" horiz-adv-x="2480" d="M106 987v203q0 133 84.5 206.5t212.5 73.5q127 0 212 -74t85 -206v-203q0 -132 -85 -206t-212 -74q-128 0 -212.5 73.5t-84.5 206.5zM299 995q0 -116 104 -116q50 0 77.5 29t27.5 87v187q0 58 -27.5 87t-77.5 29q-104 0 -104 -116v-187zM420 0l690 1458h209l-690 -1458 h-209zM1036 268v203q0 133 84.5 207t212.5 74q126 0 211.5 -74.5t85.5 -206.5v-203q0 -132 -85 -206t-212 -74q-128 0 -212.5 73.5t-84.5 206.5zM1229 276q0 -116 104 -116q50 0 77.5 29t27.5 87v187q0 58 -27.5 87.5t-77.5 29.5q-104 0 -104 -117v-187zM1778 268v203 q0 133 84.5 207t212.5 74q126 0 211.5 -74.5t85.5 -206.5v-203q0 -132 -85 -206t-212 -74q-128 0 -212.5 73.5t-84.5 206.5zM1970 276q0 -116 105 -116q104 0 104 114v189q0 117 -104 117q-105 0 -105 -117v-187z" />
<glyph unicode="&#x2039;" horiz-adv-x="716" d="M70 563l510 508v-317l-193 -191l193 -190v-318z" />
<glyph unicode="&#x203a;" horiz-adv-x="716" d="M137 55v318l195 190l-195 191v317l510 -508z" />
<glyph unicode="&#x2044;" horiz-adv-x="425" d="M-236 0l691 1458h207l-691 -1458h-207z" />
<glyph unicode="&#x205f;" horiz-adv-x="519" />
<glyph unicode="&#x20ac;" horiz-adv-x="1400" d="M80 485v170h141v154h-141v170h149q10 107 41 186.5t97 145.5q159 159 393 159q210 0 353.5 -118.5t180.5 -341.5h-288q-23 94 -84.5 150.5t-161.5 56.5q-111 0 -180 -76q-50 -55 -60 -162h303v-170h-315v-154h315v-170h-305q6 -63 20 -100t42 -68q68 -75 180 -75 q101 0 163 56.5t85 150.5h286q-37 -223 -181 -342t-353 -119q-234 0 -393 159q-67 67 -97.5 147.5t-40.5 190.5h-149z" />
<glyph unicode="&#x2122;" horiz-adv-x="1892" d="M92 1284v174h645v-174h-225v-700h-195v700h-225zM872 584v874h195l250 -467l250 467h194v-874h-194v516l-164 -322h-172l-164 322v-516h-195z" />
<glyph unicode="&#x25fc;" horiz-adv-x="1064" d="M0 0v1065h1065v-1065h-1065z" />
</font>
</defs>
</svg>
